<svg xmlns="http://www.w3.org/2000/svg" viewBox="0 0 179.83 128.99"><defs><style>.cls-1{fill:#fff;}</style></defs><title>Datový zdroj 15</title><g id="Vrstva_2" data-name="Vrstva 2"><g id="Vrstva_1-2" data-name="Vrstva 1"><circle class="cls-1" cx="150.52" cy="83.15" r="5.61"/><path d="M150,88.89a5.78,5.78,0,1,1,.37,0Zm1-11.18-.35,0a5.48,5.48,0,0,0-5.6,5.33A5.47,5.47,0,1,0,151,77.71Z"/><circle class="cls-1" cx="151.99" cy="82.65" r="5.61"/><path d="M151.48,88.39a5.78,5.78,0,1,1,.38,0Zm1-11.18-.35,0A5.46,5.46,0,0,0,148,86.42,5.46,5.46,0,0,0,156,78.88,5.46,5.46,0,0,0,152.47,77.21Z"/><circle class="cls-1" cx="153.53" cy="82.32" r="5.61"/><path d="M153,88.06a5.76,5.76,0,0,1-5.25-5.88,5.76,5.76,0,1,1,5.62,5.9Zm1-11.18-.35,0a5.47,5.47,0,0,0-4.09,9.23,5.41,5.41,0,0,0,3.83,1.69,5.46,5.46,0,0,0,4.08-9.23A5.39,5.39,0,0,0,154,76.88Z"/><circle class="cls-1" cx="155.09" cy="82.17" r="5.61"/><path d="M154.59,87.91A5.76,5.76,0,0,1,149.33,82a5.76,5.76,0,1,1,11.52.28,5.78,5.78,0,0,1-5.9,5.62Zm1-11.18-.35,0a5.47,5.47,0,1,0,.35,0Z"/><circle class="cls-1" cx="156.64" cy="82.2" r="5.61"/><path d="M156.14,88a5.78,5.78,0,1,1,.37,0Zm1-11.19-.35,0a5.48,5.48,0,1,0,.35,0Z"/><circle class="cls-1" cx="158.17" cy="82.44" r="5.61"/><path d="M157.66,88.18a5.78,5.78,0,1,1,.37,0Zm1-11.18-.35,0a5.47,5.47,0,1,0,.35,0Z"/><circle class="cls-1" cx="159.62" cy="82.89" r="5.61"/><path d="M159.11,88.63a5.76,5.76,0,0,1-5.25-5.87,5.76,5.76,0,1,1,11.52.27,5.77,5.77,0,0,1-5.9,5.62Zm1-11.18-.34,0a5.47,5.47,0,0,0-4.09,9.23,5.48,5.48,0,0,0,7.73.19,5.47,5.47,0,0,0-3.3-9.4Z"/><circle class="cls-1" cx="160.97" cy="83.57" r="5.61"/><path d="M160.46,89.31a5.76,5.76,0,1,1,6.27-5.6h0a5.75,5.75,0,0,1-5.9,5.62Zm1-11.18-.35,0a5.46,5.46,0,1,0,3.64,9.41,5.37,5.37,0,0,0,1.69-3.82h0a5.46,5.46,0,0,0-5-5.57Z"/><circle class="cls-1" cx="162.19" cy="84.48" r="5.61"/><path d="M161.69,90.22a5.78,5.78,0,1,1,.37,0Zm1-11.18-.35,0a5.45,5.45,0,1,0,5.34,5.59A5.48,5.48,0,0,0,162.67,79Z"/><circle class="cls-1" cx="163.23" cy="85.61" r="5.61"/><path d="M162.72,91.35a5.8,5.8,0,1,1,.37,0Zm1-11.18-.35,0a5.47,5.47,0,0,0-5.59,5.33,5.46,5.46,0,0,0,10.92.26A5.46,5.46,0,0,0,163.71,80.17Z"/><circle class="cls-1" cx="164.04" cy="86.89" r="5.61"/><path d="M163.54,92.64a5.78,5.78,0,1,1,.37,0Zm1-11.19-.36,0a5.46,5.46,0,1,0,.36,0Z"/><circle class="cls-1" cx="164.64" cy="88.3" r="5.61"/><path d="M164.13,94a5.81,5.81,0,1,1,.38,0Zm1-11.18-.35,0a5.46,5.46,0,0,0-4.08,9.23,5.46,5.46,0,0,0,9.41-3.64A5.47,5.47,0,0,0,165.12,82.86Z"/><circle class="cls-1" cx="165.03" cy="89.8" r="5.61"/><path d="M164.52,95.54a5.81,5.81,0,1,1,.38,0Zm1-11.19-.35,0a5.47,5.47,0,1,0,3.64,9.42,5.4,5.4,0,0,0,1.69-3.82A5.47,5.47,0,0,0,165.51,84.35Z"/><circle class="cls-1" cx="165.22" cy="91.34" r="5.61"/><path d="M164.71,97.08a5.8,5.8,0,1,1,.37,0Zm1-11.18-.35,0a5.46,5.46,0,0,0-4.08,9.23,5.46,5.46,0,0,0,9.41-3.64A5.47,5.47,0,0,0,165.7,85.9Z"/><circle class="cls-1" cx="165.22" cy="92.91" r="5.61"/><path d="M164.71,98.65A5.77,5.77,0,1,1,171,93h0a5.78,5.78,0,0,1-5.9,5.63Zm1-11.19-.35,0a5.47,5.47,0,0,0-5.59,5.34,5.46,5.46,0,0,0,10.92.26h0A5.48,5.48,0,0,0,165.7,87.46Z"/><circle class="cls-1" cx="165.03" cy="94.45" r="5.61"/><path d="M164.52,100.19a5.78,5.78,0,1,1,.37,0Zm1-11.18-.35,0a5.47,5.47,0,1,0,.35,0Z"/><circle class="cls-1" cx="164.68" cy="95.95" r="5.61"/><path d="M164.17,101.69a5.76,5.76,0,0,1-5.25-5.87,5.76,5.76,0,1,1,5.62,5.89Zm1-11.18-.35,0a5.47,5.47,0,0,0-4.09,9.23,5.47,5.47,0,0,0,9.42-3.64A5.47,5.47,0,0,0,165.16,90.51Z"/><circle class="cls-1" cx="164.19" cy="97.41" r="5.61"/><path d="M163.68,103.15a5.78,5.78,0,1,1,.37,0Zm1-11.18-.35,0a5.46,5.46,0,1,0,3.82,1.69A5.37,5.37,0,0,0,164.67,92Z"/><circle class="cls-1" cx="163.59" cy="98.82" r="5.61"/><path d="M163.08,104.56a5.77,5.77,0,0,1-3.47-9.91,5.78,5.78,0,0,1,4.12-1.59,5.76,5.76,0,0,1-.28,11.52Zm1-11.18-.35,0a5.47,5.47,0,1,0,.35,0Z"/><circle class="cls-1" cx="162.89" cy="100.2" r="5.61"/><path d="M162.38,105.94a5.8,5.8,0,1,1,.37,0Zm1-11.18-.35,0a5.46,5.46,0,1,0,5.33,5.59A5.47,5.47,0,0,0,163.37,94.76Z"/><circle class="cls-1" cx="162.11" cy="101.54" r="5.61"/><path d="M161.61,107.28a5.76,5.76,0,1,1,4.48-1.57A5.68,5.68,0,0,1,162,107.3Zm1-11.18-.35,0a5.46,5.46,0,0,0-4.08,9.23,5.46,5.46,0,0,0,9.41-3.64A5.47,5.47,0,0,0,162.59,96.1Z"/><circle class="cls-1" cx="161.28" cy="102.85" r="5.61"/><path d="M160.77,108.59a5.76,5.76,0,0,1-5.25-5.87,5.76,5.76,0,1,1,9.74,4.3,5.7,5.7,0,0,1-4.12,1.59Zm1-11.18-.35,0a5.47,5.47,0,1,0,.35,0Z"/><circle class="cls-1" cx="160.4" cy="104.13" r="5.61"/><path d="M159.9,109.88a5.78,5.78,0,1,1,.37,0Zm1-11.19-.35,0a5.48,5.48,0,1,0,.35,0Z"/><circle class="cls-1" cx="159.48" cy="105.4" r="5.61"/><path d="M159,111.14a5.76,5.76,0,0,1-5.25-5.88,5.76,5.76,0,1,1,9.73,4.31,5.7,5.7,0,0,1-4.11,1.59ZM160,100l-.34,0a5.46,5.46,0,1,0,3.64,9.41A5.46,5.46,0,0,0,160,100Z"/><circle class="cls-1" cx="158.44" cy="106.63" r="5.61"/><path d="M157.93,112.37a5.78,5.78,0,1,1,.37,0Zm1-11.18-.35,0A5.47,5.47,0,0,0,153,106.5a5.46,5.46,0,0,0,5.33,5.59,5.46,5.46,0,0,0,5.59-5.33,5.46,5.46,0,0,0-5-5.57Z"/><circle class="cls-1" cx="157.29" cy="107.75" r="5.61"/><path d="M156.79,113.49a5.76,5.76,0,0,1,.64-11.5,5.76,5.76,0,0,1-.27,11.52Zm1-11.19h-.35a5.43,5.43,0,0,0-3.9,1.5,5.47,5.47,0,0,0,3.64,9.42,5.48,5.48,0,0,0,5.6-5.33A5.48,5.48,0,0,0,157.77,102.3Z"/><circle class="cls-1" cx="156.04" cy="108.66" r="5.61"/><path d="M155.54,114.4a5.78,5.78,0,1,1,.37,0Zm1-11.18-.35,0a5.46,5.46,0,0,0-4.08,9.23,5.47,5.47,0,0,0,9.42-3.64A5.48,5.48,0,0,0,156.52,103.22Z"/><circle class="cls-1" cx="154.7" cy="109.29" r="5.61"/><path d="M154.19,115a5.77,5.77,0,0,1-5.26-5.88,5.77,5.77,0,0,1,5.9-5.62,5.76,5.76,0,1,1-.27,11.52Zm1-11.18-.35,0a5.46,5.46,0,0,0-5.6,5.33,5.47,5.47,0,1,0,9.42-3.64A5.41,5.41,0,0,0,155.18,103.85Z"/><circle class="cls-1" cx="153.25" cy="109.55" r="5.61"/><path d="M152.75,115.29a5.76,5.76,0,1,1,4.68-9.72,5.76,5.76,0,0,1-.2,8.15,5.7,5.7,0,0,1-4.11,1.59Zm1-11.18-.36,0a5.46,5.46,0,1,0,.36,0Z"/><circle class="cls-1" cx="151.75" cy="109.36" r="5.61"/><path d="M151.25,115.1a5.77,5.77,0,0,1-5.26-5.88,5.76,5.76,0,1,1,5.63,5.9Zm1-11.18-.36,0a5.46,5.46,0,0,0-5.59,5.33,5.47,5.47,0,1,0,9.42-3.64A5.41,5.41,0,0,0,152.24,103.92Z"/><circle class="cls-1" cx="150.4" cy="108.74" r="5.61"/><path d="M149.9,114.48a5.78,5.78,0,1,1,.37,0Zm1-11.18-.35,0a5.46,5.46,0,0,0-.26,10.92,5.46,5.46,0,0,0,.61-10.9Z"/><circle class="cls-1" cx="149.25" cy="107.77" r="5.61"/><path d="M148.74,113.52a5.78,5.78,0,1,1,.37,0Zm1-11.19-.35,0a5.48,5.48,0,0,0-5.6,5.33,5.47,5.47,0,1,0,5.95-5.31Z"/><circle class="cls-1" cx="148.27" cy="106.56" r="5.61"/><path d="M147.76,112.3a5.77,5.77,0,1,1,6.27-5.61,5.77,5.77,0,0,1-5.89,5.63Zm1-11.19-.35,0a5.47,5.47,0,1,0,3.64,9.42,5.47,5.47,0,0,0,.19-7.72A5.47,5.47,0,0,0,148.75,101.11Z"/><circle class="cls-1" cx="147.48" cy="105.18" r="5.61"/><path d="M147,110.92A5.76,5.76,0,0,1,143.5,101a5.76,5.76,0,0,1,9.74,4.3,5.77,5.77,0,0,1-5.9,5.63Zm1-11.19-.35,0a5.48,5.48,0,0,0-3.9,1.51,5.41,5.41,0,0,0-1.69,3.83,5.46,5.46,0,0,0,9.23,4.08,5.47,5.47,0,0,0-3.29-9.4Z"/><circle class="cls-1" cx="146.86" cy="103.72" r="5.61"/><path d="M146.35,109.46a5.76,5.76,0,1,1,4.49-1.57,5.68,5.68,0,0,1-4.11,1.59Zm1-11.18-.35,0a5.46,5.46,0,0,0-4.08,9.23,5.46,5.46,0,0,0,7.91-7.54A5.46,5.46,0,0,0,147.34,98.28Z"/><circle class="cls-1" cx="146.38" cy="102.26" r="5.61"/><path d="M145.88,108a5.76,5.76,0,1,1,.36,0Zm1-11.18-.35,0a5.5,5.5,0,1,0,.35,0Z"/><circle class="cls-1" cx="145.99" cy="100.77" r="5.61"/><path d="M145.48,106.51A5.77,5.77,0,0,1,142,96.6a5.76,5.76,0,1,1,8,8.34,5.66,5.66,0,0,1-4.11,1.59Zm1-11.18-.35,0a5.47,5.47,0,0,0-.26,10.93,5.47,5.47,0,0,0,.61-10.91Z"/><circle class="cls-1" cx="145.67" cy="99.27" r="5.61"/><path d="M145.16,105a5.8,5.8,0,1,1,.37,0Zm1-11.18-.35,0a5.47,5.47,0,0,0-5.59,5.33,5.46,5.46,0,0,0,10.92.26A5.47,5.47,0,0,0,146.15,93.83Z"/><circle class="cls-1" cx="145.42" cy="97.75" r="5.61"/><path d="M144.91,103.49a5.8,5.8,0,1,1,.37,0Zm1-11.18-.35,0A5.47,5.47,0,0,0,140,97.62a5.46,5.46,0,1,0,10.92.26A5.47,5.47,0,0,0,145.9,92.31Z"/><circle class="cls-1" cx="145.23" cy="96.22" r="5.61"/><path d="M144.73,102a5.76,5.76,0,0,1-3.47-9.91A5.76,5.76,0,1,1,145.1,102Zm1-11.18-.35,0a5.5,5.5,0,1,0,.35,0Z"/><circle class="cls-1" cx="145.1" cy="94.68" r="5.61"/><path d="M144.59,100.42a5.76,5.76,0,0,1-5.25-5.88,5.76,5.76,0,1,1,5.62,5.9Zm1-11.18-.35,0a5.42,5.42,0,0,0-3.9,1.51,5.46,5.46,0,0,0,3.64,9.41,5.46,5.46,0,0,0,4.08-9.23A5.39,5.39,0,0,0,145.58,89.24Z"/><circle class="cls-1" cx="145" cy="93.13" r="5.61"/><path d="M144.5,98.88a5.77,5.77,0,0,1,.64-11.51,5.79,5.79,0,0,1,5.63,5.9,5.78,5.78,0,0,1-5.9,5.63Zm1-11.19-.36,0a5.46,5.46,0,1,0,.36,0Z"/><circle class="cls-1" cx="144.95" cy="91.58" r="5.61"/><path d="M144.44,97.32a5.78,5.78,0,1,1,.37,0Zm1-11.18-.35,0a5.47,5.47,0,1,0,.35,0Z"/><circle class="cls-1" cx="144.92" cy="90.03" r="5.61"/><path d="M144.41,95.77a5.78,5.78,0,1,1,.37,0Zm1-11.18-.35,0A5.46,5.46,0,0,0,141,93.8a5.46,5.46,0,1,0,4.44-9.21Z"/><circle class="cls-1" cx="144.9" cy="88.48" r="5.61"/><path d="M144.39,94.22a5.78,5.78,0,1,1,.38,0Zm1-11.18L145,83a5.46,5.46,0,1,0,3.64,9.41A5.46,5.46,0,0,0,145.38,83Z"/><circle class="cls-1" cx="144.9" cy="86.93" r="5.61"/><path d="M144.39,92.67a5.76,5.76,0,0,1-5.25-5.88,5.76,5.76,0,1,1,5.62,5.9Zm1-11.18-.35,0a5.47,5.47,0,0,0-4.09,9.23,5.41,5.41,0,0,0,3.83,1.69,5.46,5.46,0,0,0,4.08-9.23A5.39,5.39,0,0,0,145.38,81.49Z"/><circle class="cls-1" cx="144.9" cy="85.39" r="5.61"/><path d="M144.39,91.13a5.79,5.79,0,0,1-5.26-5.88,5.76,5.76,0,1,1,5.63,5.9Zm1-11.19-.35,0a5.47,5.47,0,0,0-4.09,9.24,5.47,5.47,0,1,0,4.44-9.22Z"/><circle class="cls-1" cx="144.89" cy="83.84" r="5.61"/><path d="M144.39,89.58a5.77,5.77,0,1,1,.37,0Zm1-11.18-.35,0a5.46,5.46,0,0,0-.26,10.92,5.46,5.46,0,0,0,4.09-9.23A5.41,5.41,0,0,0,145.37,78.4Z"/><circle class="cls-1" cx="144.89" cy="82.29" r="5.61"/><path d="M144.38,88a5.78,5.78,0,1,1,.37,0Zm1-11.19-.35,0a5.46,5.46,0,0,0-5.59,5.33,5.48,5.48,0,0,0,5.33,5.6,5.47,5.47,0,0,0,.61-10.91Z"/><circle class="cls-1" cx="144.89" cy="80.75" r="5.61"/><path d="M144.38,86.49a5.76,5.76,0,0,1-5.25-5.88,5.76,5.76,0,1,1,5.62,5.9Zm1-11.18-.35,0a5.46,5.46,0,1,0,5.33,5.59A5.46,5.46,0,0,0,145.37,75.31Z"/><circle class="cls-1" cx="144.89" cy="79.2" r="5.61"/><path d="M144.38,84.94a5.76,5.76,0,0,1-5.25-5.87,5.76,5.76,0,1,1,11.52.27,5.79,5.79,0,0,1-5.9,5.63C144.63,85,144.5,85,144.38,84.94Zm1-11.18-.34,0a5.48,5.48,0,1,0,.34,0Z"/><circle class="cls-1" cx="144.88" cy="77.66" r="5.61"/><path d="M144.38,83.4a5.78,5.78,0,1,1,.37,0Zm1-11.18-.35,0a5.46,5.46,0,0,0-4.08,9.23,5.47,5.47,0,0,0,9.42-3.64A5.47,5.47,0,0,0,145.36,72.22Z"/><circle class="cls-1" cx="144.88" cy="76.11" r="5.61"/><path d="M144.38,81.85a5.76,5.76,0,0,1,.64-11.5,5.76,5.76,0,0,1-.27,11.52A2.23,2.23,0,0,1,144.38,81.85Zm1-11.18-.35,0a5.5,5.5,0,1,0,.35,0Z"/><circle class="cls-1" cx="144.88" cy="74.57" r="5.61"/><path d="M144.38,80.31a5.76,5.76,0,1,1,.36,0Zm1-11.18-.35,0a5.46,5.46,0,1,0,3.64,9.41,5.46,5.46,0,0,0-3.29-9.39Z"/><path class="cls-1" d="M147.16,67.91h-.22c-.89,0-1.78,0-2.68,0h-.5l-1.28.08a5.63,5.63,0,1,0,4.68,0Z"/><path d="M147.48,67.9l-.54,0h-.19a5.37,5.37,0,0,1,3.59,5.23A5.49,5.49,0,0,1,148.65,77a5.46,5.46,0,1,1-5.76-9l-.77,0a5.82,5.82,0,0,0-1.22.88,5.77,5.77,0,0,0,3.47,9.91l.37,0a5.76,5.76,0,0,0,5.9-5.62,5.69,5.69,0,0,0-3.16-5.26Z"/><path class="cls-1" d="M149.18,67.89c-.33,0-.66,0-1,0l-.26,0-1,0c-.89,0-1.79,0-2.68,0h-.45c-1.11.08-2.22.13-3.32.11a5.62,5.62,0,1,0,8.69-.09Z"/><path d="M149,67.89a5.47,5.47,0,1,1-8.31.09h-.37a5.76,5.76,0,0,0,4.06,9.24l.37,0a5.78,5.78,0,0,0,5.9-5.63,5.66,5.66,0,0,0-1.28-3.73Z"/><path class="cls-1" d="M150.06,67.83a14.68,14.68,0,0,1-1.86.06l-.26,0-1,0c-.89,0-1.79,0-2.68,0h-.46a30.64,30.64,0,0,1-4.17.07,5.75,5.75,0,0,0-.37,1.86,5.61,5.61,0,0,0,11.22.27A5.39,5.39,0,0,0,150.06,67.83Z"/><path d="M149.91,67.84a5.46,5.46,0,1,1-10.5,2,5.8,5.8,0,0,1,.37-1.85h-.31a6,6,0,0,0-.36,1.86,5.75,5.75,0,0,0,5.26,5.87l.37,0a5.75,5.75,0,0,0,5.89-5.62,5.64,5.64,0,0,0-.41-2.24Z"/><path class="cls-1" d="M150.45,67.84h-.18a18.15,18.15,0,0,1-2.07.06l-.26,0-1,0c-.89,0-1.79,0-2.68,0h-.46a29.7,29.7,0,0,1-4.52,0c0,.11,0,.22,0,.33a5.61,5.61,0,1,0,11.22.27A5.08,5.08,0,0,0,150.45,67.84Z"/><path d="M150.3,67.83a5.23,5.23,0,0,1,0,.69,5.47,5.47,0,0,1-5.59,5.33,5.46,5.46,0,0,1-5.33-5.59c0-.11,0-.22,0-.33l-.29,0c0,.11,0,.22,0,.34a5.77,5.77,0,0,0,5.25,5.88l.37,0a5.77,5.77,0,0,0,5.9-5.63,4.86,4.86,0,0,0,0-.66Z"/><path class="cls-1" d="M150.27,67.83a18.15,18.15,0,0,1-2.07.06l-.26,0-1,0c-.89,0-1.79,0-2.68,0h-.45a30.09,30.09,0,0,1-4.45.06,5.61,5.61,0,0,0,11-.1Z"/><path d="M150.26,67.83h0a5.45,5.45,0,0,1-10.71.11l-.31,0a5.75,5.75,0,0,0,5.15,4.67l.37,0a5.76,5.76,0,0,0,5.8-4.75Z"/><path class="cls-1" d="M148.2,67.89l-.26,0-1,0c-.89,0-1.79,0-2.68,0h-.46a33.44,33.44,0,0,1-3.87.09,5.6,5.6,0,0,0,9.92-.11A13.12,13.12,0,0,1,148.2,67.89Z"/><path d="M149.67,67.86a5.45,5.45,0,0,1-8.76,1.21,5.61,5.61,0,0,1-.8-1.1l-.36,0a5.53,5.53,0,0,0,.95,1.32A5.66,5.66,0,0,0,144.36,71l.37,0A5.77,5.77,0,0,0,150,67.84Z"/><path class="cls-1" d="M148.2,67.89l-.26,0-1,0c-.89,0-1.79,0-2.68,0h-.47c-.87.06-1.74.11-2.61.12a5.61,5.61,0,0,0,7.45-.09Z"/><path d="M148.41,67.89a5.42,5.42,0,0,1-7,.09H141a5.74,5.74,0,0,0,3.4,1.5l.37,0a5.72,5.72,0,0,0,4.12-1.61Z"/><ellipse class="cls-1" cx="39.34" cy="86.42" rx="4.66" ry="5.54" transform="translate(-5.76 2.86) rotate(-3.88)"/><path d="M39.72,92.08c-2.63.18-4.95-2.21-5.16-5.34s1.76-5.81,4.39-6S43.9,83,44.11,86.09,42.36,91.9,39.72,92.08ZM39,81c-2.49.17-4.35,2.72-4.15,5.69S37.21,92,39.7,91.81s4.35-2.73,4.15-5.7S41.46,80.86,39,81Z"/><ellipse class="cls-1" cx="38.41" cy="87.8" rx="4.66" ry="5.54" transform="translate(-5.86 2.8) rotate(-3.88)"/><path d="M38.8,93.47c-2.64.18-4.95-2.22-5.16-5.34s1.75-5.81,4.39-6,4.95,2.21,5.16,5.34S41.43,93.29,38.8,93.47Zm-.75-11.06c-2.49.17-4.35,2.73-4.15,5.7s2.39,5.25,4.88,5.08,4.35-2.72,4.15-5.69S40.54,82.24,38.05,82.41Z"/><ellipse class="cls-1" cx="37.4" cy="89.14" rx="4.66" ry="5.54" transform="translate(-5.95 2.74) rotate(-3.88)"/><path d="M37.79,94.8c-2.64.18-4.95-2.22-5.16-5.34s1.75-5.81,4.39-6,4.95,2.22,5.16,5.34S40.42,94.62,37.79,94.8Zm-.75-11c-2.49.17-4.35,2.72-4.15,5.69s2.39,5.25,4.88,5.08,4.35-2.72,4.15-5.69S39.53,83.58,37,83.75Z"/><ellipse class="cls-1" cx="36.31" cy="90.36" rx="4.66" ry="5.54" transform="translate(-6.04 2.67) rotate(-3.88)"/><path d="M36.69,96c-2.63.18-4.95-2.22-5.16-5.34s1.76-5.81,4.4-6,5,2.22,5.16,5.34S39.33,95.84,36.69,96Zm-.75-11c-2.48.17-4.35,2.72-4.14,5.69s2.39,5.25,4.88,5.09S41,93,40.82,90.05,38.43,84.8,35.94,85Z"/><ellipse class="cls-1" cx="35.13" cy="91.4" rx="4.66" ry="5.54" transform="translate(-6.11 2.59) rotate(-3.88)"/><path d="M35.52,97.07c-2.64.18-5-2.22-5.17-5.34s1.76-5.81,4.4-6,5,2.21,5.16,5.34S38.15,96.89,35.52,97.07ZM34.77,86c-2.49.17-4.35,2.73-4.15,5.7S33,97,35.5,96.79s4.35-2.72,4.15-5.69S37.26,85.84,34.77,86Z"/><ellipse class="cls-1" cx="33.87" cy="92.21" rx="4.66" ry="5.54" transform="translate(-6.17 2.51) rotate(-3.88)"/><path d="M34.26,97.88c-2.64.18-4.95-2.22-5.17-5.34s1.76-5.81,4.4-6,4.95,2.21,5.16,5.34S36.89,97.7,34.26,97.88Zm-.75-11.06c-2.49.17-4.35,2.73-4.15,5.7s2.39,5.25,4.88,5.08,4.35-2.72,4.15-5.69S36,86.65,33.51,86.82Z"/><ellipse class="cls-1" cx="32.53" cy="92.72" rx="4.66" ry="5.54" transform="translate(-6.21 2.42) rotate(-3.88)"/><path d="M32.92,98.39c-2.64.18-5-2.22-5.17-5.34s1.76-5.81,4.4-6,5,2.22,5.16,5.34S35.55,98.21,32.92,98.39Zm-.75-11.06c-2.49.17-4.35,2.73-4.15,5.7s2.39,5.25,4.88,5.08,4.35-2.72,4.14-5.69S34.65,87.17,32.17,87.33Z"/><ellipse class="cls-1" cx="31.11" cy="92.87" rx="4.66" ry="5.54" transform="translate(-6.22 2.32) rotate(-3.88)"/><path d="M31.5,98.54c-2.64.18-5-2.22-5.17-5.34s1.76-5.81,4.4-6,4.95,2.22,5.16,5.34S34.13,98.36,31.5,98.54Zm-.76-11.05c-2.48.16-4.34,2.72-4.14,5.69s2.39,5.25,4.88,5.08,4.35-2.72,4.14-5.69S33.23,87.32,30.74,87.49Z"/><ellipse class="cls-1" cx="29.67" cy="92.61" rx="4.66" ry="5.54" transform="translate(-6.21 2.22) rotate(-3.88)"/><path d="M30.05,98.28c-2.63.18-4.95-2.22-5.16-5.34s1.76-5.81,4.39-6,4.95,2.21,5.16,5.34S32.68,98.1,30.05,98.28ZM29.3,87.22c-2.49.17-4.35,2.73-4.15,5.7S27.54,98.17,30,98s4.35-2.72,4.15-5.69S31.79,87.05,29.3,87.22Z"/><ellipse class="cls-1" cx="28.31" cy="91.96" rx="4.66" ry="5.54" transform="translate(-6.16 2.13) rotate(-3.88)"/><path d="M28.69,97.63c-2.63.18-5-2.22-5.16-5.34s1.76-5.81,4.39-6,4.95,2.21,5.16,5.34S31.33,97.45,28.69,97.63Zm-.75-11.06c-2.49.17-4.35,2.73-4.15,5.7s2.39,5.25,4.88,5.08,4.35-2.72,4.15-5.69S30.43,86.4,27.94,86.57Z"/><ellipse class="cls-1" cx="27.07" cy="90.99" rx="4.66" ry="5.54" transform="translate(-6.1 2.04) rotate(-3.88)"/><path d="M27.45,96.66c-2.63.18-4.95-2.22-5.16-5.34s1.76-5.81,4.39-6,4.95,2.21,5.16,5.34S30.09,96.48,27.45,96.66ZM26.7,85.6c-2.49.17-4.35,2.73-4.15,5.7s2.39,5.25,4.88,5.08,4.35-2.72,4.15-5.69S29.19,85.43,26.7,85.6Z"/><ellipse class="cls-1" cx="25.98" cy="89.77" rx="4.66" ry="5.54" transform="translate(-6.02 1.97) rotate(-3.88)"/><path d="M26.37,95.44c-2.64.18-4.95-2.22-5.16-5.34s1.75-5.81,4.39-6,4.95,2.21,5.16,5.34S29,95.26,26.37,95.44Zm-.75-11.06c-2.49.17-4.35,2.73-4.15,5.7s2.39,5.25,4.88,5.08,4.35-2.72,4.15-5.69S28.11,84.22,25.62,84.38Z"/><ellipse class="cls-1" cx="25.12" cy="88.44" rx="4.66" ry="5.54" transform="translate(-5.93 1.9) rotate(-3.88)"/><path d="M25.5,94.1c-2.63.18-4.95-2.22-5.16-5.34s1.76-5.81,4.39-6,4.95,2.22,5.16,5.34S28.14,93.92,25.5,94.1Zm-.75-11c-2.49.17-4.35,2.72-4.15,5.69S23,94,25.48,93.83s4.35-2.73,4.15-5.7S27.24,82.88,24.75,83.05Z"/><ellipse class="cls-1" cx="24.42" cy="87.02" rx="4.66" ry="5.54" transform="translate(-5.84 1.85) rotate(-3.88)"/><path d="M24.8,92.69c-2.63.18-4.95-2.22-5.16-5.34s1.76-5.81,4.39-6S29,83.58,29.19,86.7,27.44,92.51,24.8,92.69Zm-.75-11.06c-2.49.17-4.35,2.73-4.15,5.7s2.39,5.25,4.88,5.08,4.35-2.72,4.15-5.69S26.54,81.47,24.05,81.63Z"/><ellipse class="cls-1" cx="23.84" cy="85.53" rx="4.66" ry="5.54" transform="translate(-5.74 1.81) rotate(-3.88)"/><path d="M24.22,91.2c-2.63.17-4.95-2.22-5.16-5.35s1.76-5.81,4.4-6,4.95,2.22,5.16,5.35S26.86,91,24.22,91.2Zm-.75-11.06c-2.48.17-4.34,2.73-4.14,5.7s2.39,5.25,4.88,5.08,4.35-2.72,4.14-5.7S26,80,23.47,80.14Z"/><ellipse class="cls-1" cx="23.36" cy="83.98" rx="4.66" ry="5.54" transform="translate(-5.64 1.78) rotate(-3.88)"/><path d="M23.75,89.65c-2.64.18-4.95-2.22-5.16-5.34s1.75-5.81,4.39-6,4.95,2.22,5.16,5.34S26.38,89.47,23.75,89.65ZM23,78.59c-2.49.17-4.35,2.73-4.15,5.7s2.39,5.25,4.88,5.08,4.35-2.72,4.15-5.69S25.49,78.43,23,78.59Z"/><ellipse class="cls-1" cx="22.97" cy="82.41" rx="4.66" ry="5.54" transform="translate(-5.53 1.75) rotate(-3.88)"/><path d="M23.35,88.08c-2.63.17-5-2.22-5.16-5.35s1.76-5.81,4.39-6,5,2.22,5.16,5.35S26,87.9,23.35,88.08ZM22.6,77c-2.49.17-4.35,2.72-4.15,5.7S20.84,88,23.33,87.8s4.35-2.73,4.15-5.7S25.09,76.85,22.6,77Z"/><ellipse class="cls-1" cx="22.63" cy="80.82" rx="4.66" ry="5.54" transform="translate(-5.42 1.72) rotate(-3.88)"/><path d="M23,86.49c-2.63.17-5-2.22-5.16-5.35s1.76-5.81,4.39-6,5,2.22,5.17,5.35S25.65,86.31,23,86.49Zm-.75-11.06c-2.49.17-4.35,2.72-4.14,5.7s2.39,5.25,4.88,5.08,4.34-2.72,4.14-5.7S24.75,75.26,22.26,75.43Z"/><ellipse class="cls-1" cx="22.35" cy="79.22" rx="4.66" ry="5.54" transform="translate(-5.32 1.7) rotate(-3.88)"/><path d="M22.74,84.89c-2.64.17-5-2.22-5.17-5.35s1.76-5.81,4.4-6,5,2.22,5.16,5.35S25.37,84.71,22.74,84.89ZM22,73.83c-2.48.17-4.35,2.72-4.14,5.7s2.39,5.25,4.88,5.08,4.35-2.72,4.14-5.7S24.47,73.66,22,73.83Z"/><ellipse class="cls-1" cx="22.13" cy="77.61" rx="4.66" ry="5.54" transform="translate(-5.21 1.68) rotate(-3.88)"/><path d="M22.51,83.28c-2.63.18-5-2.22-5.16-5.34s1.76-5.82,4.39-6,5,2.21,5.17,5.34S25.15,83.1,22.51,83.28Zm-.75-11.06c-2.49.17-4.35,2.73-4.14,5.7S20,83.17,22.49,83s4.35-2.72,4.15-5.69S24.25,72.05,21.76,72.22Z"/><ellipse class="cls-1" cx="21.96" cy="76" rx="4.66" ry="5.54" transform="translate(-5.1 1.66) rotate(-3.88)"/><path d="M22.35,81.66c-2.64.18-5-2.21-5.16-5.34s1.76-5.81,4.39-6,5,2.22,5.16,5.34S25,81.48,22.35,81.66Zm-.75-11c-2.49.17-4.35,2.72-4.15,5.69s2.39,5.26,4.88,5.09,4.35-2.73,4.15-5.7S24.09,70.44,21.6,70.61Z"/><ellipse class="cls-1" cx="21.86" cy="74.38" rx="4.66" ry="5.54" transform="translate(-4.99 1.65) rotate(-3.88)"/><path d="M22.24,80c-2.63.18-4.95-2.21-5.16-5.34s1.76-5.81,4.39-6,5,2.22,5.16,5.34S24.87,79.86,22.24,80ZM21.49,69c-2.49.17-4.35,2.72-4.15,5.69s2.39,5.26,4.88,5.09,4.35-2.73,4.15-5.7S24,68.82,21.49,69Z"/><path class="cls-1" d="M24.12,68,23,67.94c-.81.06-1.62.11-2.4.12l-1.35,0a5.77,5.77,0,0,0-2.07,5c.21,3.05,2.46,5.39,5,5.21s4.47-2.79,4.27-5.84A5.91,5.91,0,0,0,24.12,68Z"/><path d="M24.35,68l-.52,0a5.65,5.65,0,0,1,2.48,4.45c.21,3-1.65,5.53-4.14,5.7S17.49,76,17.29,73.06a5.57,5.57,0,0,1,2.17-5H19a6,6,0,0,0-2,5c.21,3.13,2.53,5.52,5.17,5.34s4.6-2.86,4.39-6A6.11,6.11,0,0,0,24.35,68Z"/><path class="cls-1" d="M25.63,68.09c-.88,0-1.77-.09-2.66-.15s-1.62.11-2.4.12l-2.71,0a6.25,6.25,0,0,0-.71,3.37c.21,3,2.46,5.39,5,5.21s4.47-2.79,4.27-5.84A6.42,6.42,0,0,0,25.63,68.09Z"/><path d="M25.78,68.1h-.31a6.13,6.13,0,0,1,.84,2.74c.21,3-1.66,5.53-4.14,5.69s-4.68-2.11-4.88-5.08A6,6,0,0,1,18,68.08h-.3A6.41,6.41,0,0,0,17,71.46c.21,3.12,2.53,5.52,5.16,5.34s4.61-2.87,4.4-6A6.5,6.5,0,0,0,25.78,68.1Z"/><path class="cls-1" d="M26.33,68.1c-1.11,0-2.24-.08-3.36-.16-.81.06-1.62.11-2.4.12-1.09,0-2.17,0-3.25,0a6.76,6.76,0,0,0-.11,1.75c.2,3,2.45,5.39,5,5.21s4.48-2.79,4.27-5.84A7.66,7.66,0,0,0,26.33,68.1Z"/><path d="M26.46,68.1h-.27a6.59,6.59,0,0,1,.18,1.11c.2,3-1.66,5.52-4.15,5.69s-4.68-2.11-4.88-5.08a6.68,6.68,0,0,1,.12-1.74h-.27a6.8,6.8,0,0,0-.12,1.76c.22,3.12,2.53,5.52,5.17,5.34s4.6-2.87,4.39-6A6.36,6.36,0,0,0,26.46,68.1Z"/><path class="cls-1" d="M23,67.94c-.81.06-1.62.11-2.4.12-1.09,0-2.18,0-3.26,0v.13c.21,3.06,2.46,5.39,5,5.22s4.26-2.51,4.29-5.33C25.41,68.12,24.19,68,23,67.94Z"/><path d="M26.48,68.1c0,2.75-1.81,5-4.16,5.19s-4.67-2.11-4.88-5.09v-.12h-.26v.14c.21,3.13,2.53,5.52,5.16,5.34s4.38-2.57,4.41-5.47Z"/><path class="cls-1" d="M23,67.94c-.81.06-1.62.11-2.4.12l-2.83,0a4.86,4.86,0,0,0,4.75,3.73,4.73,4.73,0,0,0,4.06-3.71C25.37,68.11,24.17,68,23,67.94Z"/><path d="M26.41,68.1a4.59,4.59,0,0,1-3.93,3.58,4.75,4.75,0,0,1-4.6-3.6h-.27A5,5,0,0,0,22.5,72a4.89,4.89,0,0,0,4.19-3.85Z"/><path class="cls-1" d="M23,67.94c-.81.06-1.62.11-2.4.12l-1.86,0a4.48,4.48,0,0,0,4,2.13,4.39,4.39,0,0,0,3.36-2.11C25,68.09,24,68,23,67.94Z"/><path d="M25.88,68.1a4.22,4.22,0,0,1-3.2,2,4.33,4.33,0,0,1-3.8-2h-.33a4.65,4.65,0,0,0,4.15,2.27,4.55,4.55,0,0,0,3.51-2.25Z"/><path class="cls-1" d="M23,67.94c-.79.06-1.58.11-2.34.12a4.06,4.06,0,0,0,2.32.55,4,4,0,0,0,1.78-.56Z"/><path d="M24.46,68a4,4,0,0,1-1.52.44,3.82,3.82,0,0,1-2-.43h-.53a4.12,4.12,0,0,0,4.58,0Z"/><path d="M53.83,67.92a4.17,4.17,0,0,1-2.78,1.42,4.21,4.21,0,0,1-3.33-1.41h-.36a4.47,4.47,0,0,0,3.7,1.68,4.35,4.35,0,0,0,3.09-1.67Z"/><path class="cls-1" d="M46.37,67.93a4.74,4.74,0,0,0,4.52,3.14A4.59,4.59,0,0,0,54.75,68Z"/><path d="M54.6,68a4.44,4.44,0,0,1-3.72,3,4.57,4.57,0,0,1-4.36-3h-.29a4.9,4.9,0,0,0,4.67,3.28,4.77,4.77,0,0,0,4-3.24Z"/><path class="cls-1" d="M45.75,67.93c.39,2.81,2.53,4.89,5,4.73,2.24-.15,4-2.16,4.25-4.69C54.52,68,46.81,68,45.75,67.93Z"/><path d="M54.82,68c-.28,2.45-2,4.4-4.12,4.55-2.35.16-4.42-1.87-4.82-4.59h-.27c.4,2.89,2.61,5,5.1,4.87,2.31-.16,4.1-2.23,4.38-4.84Z"/><path class="cls-1" d="M54.77,68.4c0-.15,0-.29,0-.44-.37,0-8.08,0-9.22,0a6.71,6.71,0,0,0,0,1.1c.21,3,2.46,5.39,5,5.21S55,71.45,54.77,68.4Z"/><path d="M54.91,68.39c0-.14,0-.28,0-.42h-.27c0,.15,0,.3,0,.45.2,3-1.66,5.53-4.15,5.7S45.82,72,45.62,69a6.59,6.59,0,0,1,0-1.09h-.26a6.8,6.8,0,0,0,0,1.11c.21,3.13,2.53,5.52,5.16,5.34S55.12,71.52,54.91,68.39Z"/><path class="cls-1" d="M54.56,70a6.22,6.22,0,0,0-.49-2.06H52.62c-.23,0-5.86,0-6.95,0a6.29,6.29,0,0,0-.4,2.7c.2,3.05,2.45,5.38,5,5.21S54.77,73.05,54.56,70Z"/><path d="M54.69,70a6.82,6.82,0,0,0-.47-2h-.29a6.35,6.35,0,0,1,.5,2.07c.2,3-1.66,5.53-4.15,5.7s-4.68-2.11-4.88-5.08a6.1,6.1,0,0,1,.42-2.69h-.29a6.52,6.52,0,0,0-.4,2.71c.22,3.12,2.53,5.52,5.17,5.34S54.9,73.11,54.69,70Z"/><path class="cls-1" d="M54.32,71.62a6.11,6.11,0,0,0-1.52-3.69H46.39A6,6,0,0,0,45,72.25c.21,3,2.45,5.39,5,5.21S54.53,74.67,54.32,71.62Z"/><path d="M53,67.93h-.35a6,6,0,0,1,1.57,3.7c.2,3-1.66,5.53-4.15,5.69s-4.68-2.11-4.88-5.08a5.82,5.82,0,0,1,1.42-4.31h-.37a6.13,6.13,0,0,0-1.31,4.33c.21,3.12,2.52,5.52,5.16,5.34s4.6-2.86,4.39-6A6.23,6.23,0,0,0,53,67.93Z"/><ellipse class="cls-1" cx="49.42" cy="73.56" rx="4.66" ry="5.54" transform="translate(-4.87 3.52) rotate(-3.88)"/><path d="M54.19,73.24C54,70.35,52,68.09,49.62,67.9a2.79,2.79,0,0,1-.5,0l-.13,0c-2.61.2-4.56,2.88-4.35,6s2.53,5.52,5.16,5.34S54.41,76.36,54.19,73.24ZM49.78,79c-2.49.17-4.68-2.11-4.88-5.08s1.66-5.53,4.15-5.7,4.68,2.11,4.88,5.09S52.27,78.78,49.78,79Z"/><ellipse class="cls-1" cx="49.13" cy="75.19" rx="4.66" ry="5.54" transform="translate(-4.98 3.5) rotate(-3.88)"/><path d="M49.52,80.85c-2.64.18-5-2.21-5.16-5.34s1.76-5.81,4.39-6,5,2.22,5.16,5.34S52.15,80.67,49.52,80.85Zm-.75-11c-2.49.17-4.35,2.72-4.15,5.69S47,80.74,49.5,80.58s4.35-2.73,4.15-5.7S51.26,69.63,48.77,69.8Z"/><ellipse class="cls-1" cx="48.83" cy="76.81" rx="4.66" ry="5.54" transform="translate(-5.09 3.48) rotate(-3.88)"/><path d="M49.21,82.47c-2.63.18-5-2.21-5.16-5.34s1.76-5.81,4.39-6,5,2.22,5.17,5.34S51.85,82.29,49.21,82.47Zm-.75-11c-2.49.17-4.35,2.72-4.15,5.69s2.39,5.26,4.88,5.09,4.35-2.73,4.15-5.7S51,71.25,48.46,71.42Z"/><ellipse class="cls-1" cx="48.5" cy="78.42" rx="4.66" ry="5.54" transform="translate(-5.2 3.47) rotate(-3.88)"/><path d="M48.88,84.09c-2.63.17-5-2.22-5.16-5.35s1.76-5.81,4.39-6,5,2.22,5.16,5.35S51.51,83.91,48.88,84.09ZM48.13,73c-2.49.17-4.35,2.72-4.15,5.7s2.39,5.25,4.88,5.08,4.35-2.73,4.15-5.7S50.62,72.86,48.13,73Z"/><ellipse class="cls-1" cx="48.13" cy="80.02" rx="4.66" ry="5.54" transform="matrix(1, -0.07, 0.07, 1, -5.31, 3.44)"/><path d="M48.52,85.69c-2.64.18-5-2.22-5.16-5.34s1.75-5.82,4.39-6,5,2.21,5.16,5.34S51.15,85.51,48.52,85.69Zm-.75-11.06c-2.49.17-4.35,2.73-4.15,5.7S46,85.58,48.5,85.41s4.35-2.72,4.15-5.7S50.26,74.46,47.77,74.63Z"/><ellipse class="cls-1" cx="47.74" cy="81.61" rx="4.66" ry="5.54" transform="translate(-5.42 3.42) rotate(-3.88)"/><path d="M48.12,87.27c-2.63.18-4.95-2.21-5.16-5.34s1.76-5.81,4.4-6,5,2.22,5.16,5.34S50.76,87.1,48.12,87.27Zm-.75-11c-2.48.17-4.35,2.72-4.14,5.7s2.39,5.25,4.88,5.08,4.35-2.73,4.14-5.7S49.86,76.05,47.37,76.22Z"/><ellipse class="cls-1" cx="47.31" cy="83.18" rx="4.66" ry="5.54" transform="translate(-5.53 3.4) rotate(-3.88)"/><path d="M47.7,88.85c-2.64.17-5-2.22-5.16-5.35s1.75-5.81,4.39-6,5,2.22,5.16,5.35S50.33,88.67,47.7,88.85ZM47,77.79c-2.49.17-4.35,2.73-4.15,5.7s2.39,5.25,4.88,5.08,4.35-2.72,4.15-5.7S49.44,77.62,47,77.79Z"/><ellipse class="cls-1" cx="46.85" cy="84.73" rx="4.66" ry="5.54" transform="translate(-5.63 3.37) rotate(-3.88)"/><path d="M47.24,90.4c-2.64.18-5-2.22-5.17-5.34s1.76-5.82,4.4-6,5,2.21,5.16,5.34S49.87,90.22,47.24,90.4Zm-.75-11.06c-2.49.17-4.35,2.73-4.15,5.7s2.39,5.25,4.88,5.08,4.35-2.72,4.15-5.7S49,79.17,46.49,79.34Z"/><ellipse class="cls-1" cx="46.35" cy="86.26" rx="4.66" ry="5.54" transform="translate(-5.74 3.34) rotate(-3.88)"/><path d="M46.74,91.92c-2.64.18-5-2.21-5.16-5.34s1.75-5.81,4.39-6,5,2.22,5.16,5.34S49.37,91.75,46.74,91.92Zm-.75-11c-2.49.17-4.35,2.72-4.15,5.7s2.39,5.25,4.88,5.08,4.35-2.73,4.15-5.7S48.48,80.7,46,80.87Z"/><ellipse class="cls-1" cx="45.81" cy="87.76" rx="4.66" ry="5.54" transform="translate(-5.84 3.31) rotate(-3.88)"/><path d="M46.2,93.43c-2.64.18-5-2.22-5.16-5.34s1.76-5.82,4.39-6,5,2.21,5.16,5.34S48.83,93.25,46.2,93.43Zm-.75-11.06c-2.49.17-4.35,2.73-4.15,5.7s2.39,5.25,4.88,5.08,4.35-2.72,4.15-5.7S47.94,82.2,45.45,82.37Z"/><ellipse class="cls-1" cx="45.23" cy="89.23" rx="4.66" ry="5.54" transform="matrix(1, -0.07, 0.07, 1, -5.94, 3.27)"/><path d="M45.62,94.9c-2.64.18-4.95-2.22-5.16-5.34s1.76-5.81,4.39-6S49.8,85.79,50,88.91,48.25,94.72,45.62,94.9Zm-.75-11.06c-2.49.17-4.35,2.73-4.15,5.7s2.39,5.25,4.88,5.08S50,91.9,49.75,88.93,47.36,83.68,44.87,83.84Z"/><ellipse class="cls-1" cx="44.61" cy="90.67" rx="4.66" ry="5.54" transform="matrix(1, -0.07, 0.07, 1, -6.04, 3.23)"/><path d="M45,96.34c-2.64.18-5-2.22-5.17-5.34s1.76-5.81,4.4-6,5,2.22,5.16,5.34S47.63,96.16,45,96.34Zm-.76-11.06C41.76,85.45,39.9,88,40.1,91s2.39,5.25,4.88,5.08,4.35-2.72,4.14-5.69S46.73,85.12,44.24,85.28Z"/><ellipse class="cls-1" cx="43.94" cy="92.08" rx="4.66" ry="5.54" transform="matrix(1, -0.07, 0.07, 1, -6.14, 3.19)"/><path d="M44.33,97.74c-2.64.18-4.95-2.21-5.17-5.34s1.76-5.81,4.4-6,4.95,2.22,5.16,5.34S47,97.56,44.33,97.74Zm-.76-11c-2.48.17-4.34,2.72-4.14,5.69s2.39,5.26,4.88,5.09,4.35-2.73,4.14-5.7S46.06,86.52,43.57,86.69Z"/><ellipse class="cls-1" cx="43.22" cy="93.44" rx="4.66" ry="5.54" transform="translate(-6.23 3.14) rotate(-3.88)"/><path d="M43.61,99.11c-2.64.18-5-2.22-5.16-5.34s1.75-5.81,4.39-6S47.79,90,48,93.12,46.24,98.93,43.61,99.11Zm-.75-11c-2.49.16-4.35,2.72-4.15,5.69S41.1,99,43.59,98.83s4.35-2.72,4.15-5.69S45.35,87.89,42.86,88.06Z"/><ellipse class="cls-1" cx="42.45" cy="94.77" rx="4.66" ry="5.54" transform="matrix(1, -0.07, 0.07, 1, -6.32, 3.09)"/><path d="M42.84,100.43c-2.64.18-5-2.21-5.16-5.34s1.76-5.81,4.39-6,5,2.22,5.16,5.34S45.47,100.26,42.84,100.43Zm-.75-11.05c-2.49.17-4.35,2.72-4.15,5.7s2.39,5.25,4.88,5.08,4.35-2.73,4.15-5.7S44.58,89.21,42.09,89.38Z"/><ellipse class="cls-1" cx="41.63" cy="96.05" rx="4.66" ry="5.54" transform="translate(-6.41 3.04) rotate(-3.88)"/><path d="M42,101.71c-2.64.18-5-2.21-5.16-5.34s1.76-5.81,4.39-6,5,2.22,5.16,5.34S44.65,101.54,42,101.71Zm-.75-11c-2.49.17-4.35,2.72-4.15,5.7s2.39,5.25,4.88,5.08,4.35-2.73,4.15-5.7S43.76,90.49,41.27,90.66Z"/><ellipse class="cls-1" cx="40.76" cy="97.28" rx="4.66" ry="5.54" transform="translate(-6.5 2.98) rotate(-3.88)"/><path d="M41.14,103c-2.63.18-5-2.22-5.16-5.34s1.76-5.82,4.4-6,4.95,2.21,5.16,5.34S43.78,102.77,41.14,103Zm-.75-11.06c-2.48.17-4.35,2.73-4.14,5.7s2.39,5.25,4.88,5.08S45.48,100,45.27,97,42.88,91.72,40.39,91.89Z"/><ellipse class="cls-1" cx="39.83" cy="98.46" rx="4.66" ry="5.54" transform="translate(-6.58 2.92) rotate(-3.88)"/><path d="M40.21,104.13c-2.63.18-5-2.22-5.16-5.34s1.76-5.81,4.39-6,5,2.21,5.17,5.34S42.85,104,40.21,104.13Zm-.75-11.06c-2.49.17-4.35,2.73-4.14,5.7s2.39,5.25,4.88,5.08,4.34-2.72,4.14-5.69S42,92.9,39.46,93.07Z"/><ellipse class="cls-1" cx="38.79" cy="99.64" rx="4.66" ry="5.54" transform="translate(-6.66 2.86) rotate(-3.88)"/><path d="M39.17,105.31c-2.63.18-5-2.22-5.16-5.34s1.76-5.81,4.39-6,5,2.22,5.17,5.34S41.81,105.13,39.17,105.31Zm-.75-11c-2.49.16-4.35,2.72-4.14,5.69s2.39,5.25,4.88,5.08,4.35-2.72,4.14-5.69S40.91,94.09,38.42,94.26Z"/><ellipse class="cls-1" cx="37.66" cy="100.81" rx="4.66" ry="5.54" transform="translate(-6.74 2.78) rotate(-3.88)"/><path d="M38,106.47c-2.63.18-4.95-2.21-5.16-5.34s1.76-5.81,4.39-6,4.95,2.22,5.17,5.34S40.68,106.29,38,106.47Zm-.75-11c-2.49.17-4.35,2.72-4.14,5.69s2.39,5.26,4.88,5.09,4.34-2.73,4.14-5.7S39.78,95.25,37.29,95.42Z"/><ellipse class="cls-1" cx="36.53" cy="101.87" rx="4.66" ry="5.54" transform="translate(-6.82 2.71) rotate(-3.88)"/><path d="M36.92,107.53c-2.64.18-5-2.21-5.17-5.34s1.76-5.81,4.4-6,5,2.22,5.16,5.34S39.55,107.35,36.92,107.53Zm-.75-11c-2.49.17-4.35,2.72-4.15,5.69s2.39,5.26,4.88,5.09,4.35-2.73,4.14-5.7S38.65,96.31,36.17,96.48Z"/><ellipse class="cls-1" cx="35.4" cy="102.86" rx="4.66" ry="5.54" transform="translate(-6.89 2.63) rotate(-3.88)"/><path d="M35.79,108.53c-2.64.18-5-2.22-5.17-5.34s1.76-5.81,4.4-6,4.95,2.21,5.16,5.34S38.42,108.35,35.79,108.53ZM35,97.47c-2.48.17-4.34,2.73-4.14,5.7s2.39,5.25,4.88,5.08,4.35-2.72,4.14-5.69S37.52,97.3,35,97.47Z"/><ellipse class="cls-1" cx="34.26" cy="103.82" rx="4.66" ry="5.54" transform="translate(-6.95 2.56) rotate(-3.88)"/><path d="M34.64,109.49c-2.63.18-4.95-2.22-5.16-5.34s1.76-5.81,4.4-6,4.95,2.22,5.16,5.34S37.28,109.31,34.64,109.49Zm-.75-11c-2.49.16-4.35,2.72-4.14,5.69s2.39,5.25,4.88,5.08,4.34-2.72,4.14-5.69S36.38,98.27,33.89,98.44Z"/><ellipse class="cls-1" cx="33.1" cy="104.79" rx="4.66" ry="5.54" transform="translate(-7.02 2.48) rotate(-3.88)"/><path d="M33.49,110.46c-2.64.18-5-2.22-5.17-5.34s1.76-5.82,4.4-6,5,2.21,5.16,5.34S36.12,110.28,33.49,110.46ZM32.74,99.4c-2.49.17-4.35,2.73-4.15,5.7s2.39,5.25,4.88,5.08,4.35-2.72,4.15-5.69S35.23,99.23,32.74,99.4Z"/><ellipse class="cls-1" cx="31.92" cy="105.8" rx="4.66" ry="5.54" transform="translate(-7.09 2.41) rotate(-3.88)"/><path d="M32.31,111.46c-2.64.18-5-2.21-5.17-5.34s1.76-5.81,4.4-6,5,2.22,5.16,5.34S34.94,111.28,32.31,111.46Zm-.75-11c-2.49.17-4.35,2.72-4.15,5.69s2.39,5.26,4.88,5.09,4.35-2.73,4.15-5.7S34,100.24,31.56,100.41Z"/><ellipse class="cls-1" cx="30.71" cy="106.88" rx="4.66" ry="5.54" transform="translate(-7.17 2.33) rotate(-3.88)"/><path d="M31.1,112.55c-2.64.17-5-2.22-5.17-5.35s1.76-5.81,4.4-6,5,2.22,5.16,5.35S33.73,112.37,31.1,112.55Zm-.76-11.06c-2.48.17-4.34,2.72-4.14,5.7s2.39,5.25,4.88,5.08,4.35-2.72,4.14-5.7S32.83,101.32,30.34,101.49Z"/><ellipse class="cls-1" cx="29.72" cy="107.86" rx="4.66" ry="5.54" transform="translate(-7.24 2.26) rotate(-3.88)"/><path d="M30.1,113.52c-2.63.18-5-2.21-5.16-5.34s1.76-5.81,4.39-6,5,2.22,5.17,5.34S32.74,113.34,30.1,113.52Zm-.75-11c-2.49.17-4.35,2.72-4.14,5.69s2.39,5.25,4.88,5.09,4.34-2.73,4.14-5.7S31.84,102.3,29.35,102.47Z"/><ellipse class="cls-1" cx="28.85" cy="108.86" rx="4.66" ry="5.54" transform="translate(-7.31 2.2) rotate(-3.88)"/><path d="M29.23,114.53c-2.63.18-4.95-2.22-5.16-5.34s1.76-5.81,4.39-6,4.95,2.21,5.16,5.34S31.86,114.35,29.23,114.53Zm-.75-11.06c-2.49.17-4.35,2.73-4.15,5.7s2.39,5.25,4.88,5.08,4.35-2.72,4.15-5.69S31,103.3,28.48,103.47Z"/><ellipse class="cls-1" cx="28.02" cy="109.94" rx="4.66" ry="5.54" transform="translate(-7.38 2.15) rotate(-3.88)"/><path d="M28.4,115.61c-2.63.17-4.95-2.22-5.16-5.35s1.76-5.81,4.4-6,5,2.22,5.16,5.35S31,115.43,28.4,115.61Zm-.75-11.06c-2.48.17-4.35,2.73-4.14,5.7s2.39,5.25,4.88,5.08,4.35-2.72,4.14-5.7S30.14,104.38,27.65,104.55Z"/><ellipse class="cls-1" cx="27.22" cy="111.09" rx="4.66" ry="5.54" transform="translate(-7.46 2.1) rotate(-3.88)"/><path d="M27.6,116.76c-2.63.18-5-2.22-5.16-5.34s1.76-5.81,4.39-6,5,2.21,5.16,5.34S30.23,116.58,27.6,116.76Zm-.75-11.06c-2.49.17-4.35,2.73-4.15,5.7s2.39,5.25,4.88,5.08,4.35-2.72,4.15-5.69S29.34,105.53,26.85,105.7Z"/><ellipse class="cls-1" cx="26.4" cy="112.32" rx="4.66" ry="5.54" transform="translate(-7.55 2.05) rotate(-3.88)"/><path d="M26.79,118c-2.64.17-4.95-2.22-5.16-5.35s1.75-5.81,4.39-6S31,108.87,31.18,112,29.42,117.81,26.79,118ZM26,106.93c-2.49.17-4.35,2.72-4.15,5.7s2.39,5.25,4.88,5.08,4.35-2.72,4.15-5.7S28.53,106.76,26,106.93Z"/><ellipse class="cls-1" cx="25.56" cy="113.63" rx="4.66" ry="5.54" transform="translate(-7.64 1.99) rotate(-3.88)"/><path d="M25.94,119.29c-2.63.18-5-2.22-5.16-5.34s1.76-5.81,4.39-6,4.95,2.22,5.16,5.34S28.58,119.11,25.94,119.29Zm-.75-11.05c-2.49.17-4.35,2.72-4.15,5.69s2.39,5.25,4.88,5.08,4.35-2.72,4.15-5.69S27.68,108.07,25.19,108.24Z"/><ellipse class="cls-1" cx="24.65" cy="115.01" rx="4.66" ry="5.54" transform="matrix(1, -0.07, 0.07, 1, -7.73, 1.93)"/><path d="M25,120.68c-2.63.18-5-2.22-5.16-5.34s1.76-5.82,4.39-6,4.95,2.21,5.17,5.34S27.67,120.5,25,120.68Zm-.75-11.06c-2.49.17-4.35,2.73-4.15,5.7s2.39,5.25,4.88,5.08,4.35-2.72,4.15-5.7S26.77,109.45,24.28,109.62Z"/><ellipse class="cls-1" cx="23.65" cy="116.48" rx="4.66" ry="5.54" transform="translate(-7.84 1.87) rotate(-3.88)"/><path d="M24,122.14c-2.63.18-5-2.21-5.16-5.34s1.76-5.81,4.39-6,4.95,2.22,5.17,5.34S26.67,122,24,122.14Zm-.75-11c-2.49.17-4.35,2.72-4.15,5.69S21.52,122,24,121.87s4.35-2.73,4.15-5.7S25.77,110.92,23.28,111.09Z"/><ellipse class="cls-1" cx="22.53" cy="118.03" rx="4.66" ry="5.54" transform="translate(-7.94 1.8) rotate(-3.88)"/><path d="M22.92,123.69c-2.64.18-5-2.21-5.17-5.34s1.76-5.81,4.4-6,5,2.22,5.16,5.34S25.55,123.52,22.92,123.69Zm-.76-11c-2.48.17-4.34,2.72-4.14,5.69s2.39,5.26,4.88,5.09,4.35-2.73,4.14-5.7S24.65,112.47,22.16,112.64Z"/><ellipse class="cls-1" cx="21.96" cy="118.86" rx="4.66" ry="5.54" transform="translate(-8 1.76) rotate(-3.88)"/><path d="M22.35,124.53c-2.64.18-5-2.22-5.17-5.34s1.76-5.81,4.4-6,5,2.22,5.16,5.34S25,124.35,22.35,124.53Zm-.75-11c-2.49.16-4.35,2.72-4.15,5.69s2.39,5.25,4.88,5.08,4.35-2.72,4.14-5.69S24.08,113.31,21.6,113.48Z"/><ellipse class="cls-1" cx="23" cy="117.78" rx="4.66" ry="5.54" transform="translate(-7.93 1.83) rotate(-3.88)"/><path d="M23.39,123.44c-2.64.18-4.95-2.21-5.16-5.34s1.76-5.81,4.39-6,4.95,2.22,5.16,5.34S26,123.26,23.39,123.44Zm-.75-11c-2.49.17-4.35,2.72-4.15,5.69s2.39,5.25,4.88,5.09,4.35-2.73,4.15-5.7S25.13,112.22,22.64,112.39Z"/><ellipse class="cls-1" cx="24.08" cy="116.63" rx="4.66" ry="5.54" transform="translate(-7.85 1.9) rotate(-3.88)"/><path d="M24.46,122.29c-2.63.18-4.95-2.22-5.16-5.34s1.76-5.81,4.4-6,4.95,2.22,5.16,5.34S27.1,122.11,24.46,122.29Zm-.75-11.05c-2.48.17-4.34,2.72-4.14,5.69S22,122.18,24.45,122s4.35-2.73,4.14-5.7S26.2,111.07,23.71,111.24Z"/><ellipse class="cls-1" cx="25.19" cy="115.44" rx="4.66" ry="5.54" transform="translate(-7.76 1.97) rotate(-3.88)"/><path d="M25.57,121.11c-2.63.18-4.95-2.22-5.16-5.34s1.76-5.82,4.39-6S29.75,112,30,115.12,28.2,120.93,25.57,121.11Zm-.75-11.06c-2.49.17-4.35,2.73-4.15,5.7s2.39,5.25,4.88,5.08,4.35-2.72,4.15-5.7S27.31,109.88,24.82,110.05Z"/><ellipse class="cls-1" cx="26.32" cy="114.25" rx="4.66" ry="5.54" transform="translate(-7.68 2.05) rotate(-3.88)"/><path d="M26.7,119.91c-2.63.18-4.95-2.21-5.16-5.34s1.76-5.81,4.39-6,4.95,2.22,5.17,5.34S29.34,119.74,26.7,119.91Zm-.75-11c-2.49.17-4.35,2.72-4.15,5.7s2.39,5.25,4.88,5.08,4.35-2.73,4.15-5.7S28.44,108.69,26,108.86Z"/><ellipse class="cls-1" cx="27.47" cy="113.08" rx="4.66" ry="5.54" transform="translate(-7.6 2.12) rotate(-3.88)"/><path d="M27.86,118.74c-2.64.18-4.95-2.21-5.16-5.34s1.75-5.81,4.39-6,4.95,2.22,5.16,5.34S30.49,118.56,27.86,118.74Zm-.75-11c-2.49.17-4.35,2.72-4.15,5.69s2.39,5.26,4.88,5.09,4.35-2.73,4.15-5.7S29.6,107.52,27.11,107.69Z"/><ellipse class="cls-1" cx="28.65" cy="111.96" rx="4.66" ry="5.54" transform="translate(-7.52 2.2) rotate(-3.88)"/><path d="M29,117.62c-2.64.18-5-2.22-5.17-5.34s1.76-5.81,4.4-6,4.95,2.22,5.16,5.34S31.67,117.44,29,117.62Zm-.75-11.05c-2.49.17-4.35,2.72-4.15,5.69s2.39,5.25,4.88,5.08,4.35-2.72,4.14-5.69S30.77,106.4,28.29,106.57Z"/><ellipse class="cls-1" cx="29.85" cy="110.91" rx="4.66" ry="5.54" transform="translate(-7.44 2.28) rotate(-3.88)"/><path d="M30.23,116.58c-2.63.18-4.95-2.22-5.16-5.34s1.76-5.82,4.39-6,4.95,2.21,5.17,5.34S32.87,116.4,30.23,116.58Zm-.75-11.06c-2.49.17-4.35,2.73-4.15,5.7s2.39,5.25,4.88,5.08,4.35-2.72,4.15-5.7S32,105.35,29.48,105.52Z"/><ellipse class="cls-1" cx="31.06" cy="109.97" rx="4.66" ry="5.54" transform="translate(-7.38 2.36) rotate(-3.88)"/><path d="M31.44,115.64c-2.63.18-5-2.22-5.16-5.34s1.76-5.82,4.4-6,5,2.22,5.16,5.35S34.08,115.46,31.44,115.64Zm-.75-11.06c-2.48.17-4.35,2.73-4.14,5.7s2.39,5.25,4.88,5.08,4.35-2.72,4.14-5.7S33.18,104.41,30.69,104.58Z"/><ellipse class="cls-1" cx="32.29" cy="109.16" rx="4.66" ry="5.54" transform="translate(-7.32 2.44) rotate(-3.88)"/><path d="M32.67,114.83c-2.63.18-5-2.22-5.16-5.34s1.76-5.81,4.39-6,5,2.21,5.16,5.34S35.31,114.65,32.67,114.83Zm-.75-11.06c-2.49.17-4.35,2.73-4.15,5.7s2.39,5.25,4.88,5.08,4.35-2.72,4.15-5.69S34.41,103.6,31.92,103.77Z"/><ellipse class="cls-1" cx="33.54" cy="108.51" rx="4.66" ry="5.54" transform="translate(-7.27 2.52) rotate(-3.88)"/><path d="M33.92,114.18c-2.63.18-5-2.22-5.16-5.34s1.76-5.82,4.39-6,5,2.22,5.16,5.35S36.56,114,33.92,114.18Zm-.75-11.06c-2.49.17-4.35,2.73-4.15,5.7s2.39,5.25,4.88,5.08,4.35-2.72,4.15-5.7S35.66,103,33.17,103.12Z"/><ellipse class="cls-1" cx="34.92" cy="108.02" rx="4.66" ry="5.54" transform="translate(-7.24 2.61) rotate(-3.88)"/><path d="M35.31,113.68c-2.64.18-5-2.22-5.16-5.34s1.75-5.81,4.39-6,5,2.22,5.16,5.34S37.94,113.5,35.31,113.68Zm-.75-11.05c-2.49.17-4.35,2.72-4.15,5.69s2.39,5.25,4.88,5.08,4.35-2.72,4.15-5.69S37.05,102.46,34.56,102.63Z"/><ellipse class="cls-1" cx="36.39" cy="107.71" rx="4.66" ry="5.54" transform="translate(-7.21 2.71) rotate(-3.88)"/><path d="M36.77,113.38c-2.63.18-5-2.22-5.16-5.34s1.76-5.81,4.39-6,5,2.22,5.17,5.34S39.41,113.2,36.77,113.38ZM36,102.32c-2.49.17-4.35,2.73-4.15,5.7s2.39,5.25,4.88,5.08,4.35-2.72,4.15-5.69S38.51,102.16,36,102.32Z"/><ellipse class="cls-1" cx="37.91" cy="107.6" rx="4.66" ry="5.54" transform="matrix(1, -0.07, 0.07, 1, -7.2, 2.81)"/><path d="M38.29,113.26c-2.63.18-4.95-2.22-5.16-5.34s1.76-5.81,4.39-6,4.95,2.22,5.16,5.34S40.92,113.08,38.29,113.26Zm-.75-11.05c-2.49.17-4.35,2.72-4.15,5.69s2.39,5.25,4.88,5.09,4.35-2.73,4.15-5.7S40,102,37.54,102.21Z"/><ellipse class="cls-1" cx="39.45" cy="107.66" rx="4.66" ry="5.54" transform="translate(-7.2 2.92) rotate(-3.88)"/><path d="M39.84,113.32c-2.64.18-5-2.22-5.17-5.34s1.76-5.81,4.4-6,5,2.22,5.16,5.34S42.47,113.14,39.84,113.32Zm-.75-11c-2.49.17-4.35,2.72-4.15,5.69s2.39,5.25,4.88,5.08,4.35-2.72,4.15-5.69S41.57,102.1,39.09,102.27Z"/><ellipse class="cls-1" cx="41" cy="107.88" rx="4.66" ry="5.54" transform="translate(-7.21 3.03) rotate(-3.88)"/><path d="M41.39,113.55c-2.64.18-5-2.22-5.17-5.34s1.76-5.81,4.4-6,5,2.22,5.16,5.34S44,113.37,41.39,113.55Zm-.75-11.06c-2.49.17-4.35,2.73-4.15,5.7s2.39,5.25,4.88,5.08,4.35-2.72,4.15-5.69S43.13,102.33,40.64,102.49Z"/><ellipse class="cls-1" cx="42.53" cy="108.27" rx="4.66" ry="5.54" transform="translate(-7.24 3.13) rotate(-3.88)"/><path d="M42.92,113.94c-2.64.18-5-2.22-5.17-5.34s1.76-5.82,4.4-6,5,2.21,5.16,5.34S45.55,113.76,42.92,113.94Zm-.75-11.06c-2.49.17-4.35,2.73-4.15,5.7s2.39,5.25,4.88,5.08,4.35-2.72,4.15-5.69S44.66,102.71,42.17,102.88Z"/><ellipse class="cls-1" cx="44.02" cy="108.81" rx="4.66" ry="5.54" transform="matrix(1, -0.07, 0.07, 1, -7.27, 3.23)"/><path d="M44.4,114.48c-2.63.18-4.95-2.22-5.16-5.34s1.76-5.82,4.39-6,4.95,2.21,5.17,5.34S47,114.3,44.4,114.48Zm-.75-11.06c-2.49.17-4.35,2.73-4.15,5.7s2.39,5.25,4.88,5.08,4.35-2.72,4.15-5.69S46.14,103.25,43.65,103.42Z"/><ellipse class="cls-1" cx="45.43" cy="109.5" rx="4.66" ry="5.54" transform="translate(-7.31 3.33) rotate(-3.88)"/><path d="M45.82,115.16c-2.64.18-5-2.22-5.16-5.34s1.75-5.81,4.39-6,5,2.22,5.16,5.34S48.45,115,45.82,115.16Zm-.75-11c-2.49.17-4.35,2.72-4.15,5.69s2.39,5.25,4.88,5.08,4.35-2.72,4.15-5.69S47.56,103.94,45.07,104.11Z"/><ellipse class="cls-1" cx="46.76" cy="110.31" rx="4.66" ry="5.54" transform="translate(-7.37 3.42) rotate(-3.88)"/><path d="M47.14,116c-2.63.18-5-2.22-5.16-5.34s1.76-5.81,4.39-6,5,2.22,5.16,5.34S49.77,115.8,47.14,116Zm-.75-11c-2.49.16-4.35,2.72-4.15,5.69s2.39,5.25,4.88,5.08S51.47,113,51.27,110,48.88,104.76,46.39,104.93Z"/><ellipse class="cls-1" cx="47.96" cy="111.27" rx="4.66" ry="5.54" transform="translate(-7.43 3.5) rotate(-3.88)"/><path d="M48.34,116.93c-2.63.18-5-2.21-5.16-5.34s1.76-5.81,4.39-6,5,2.22,5.17,5.34S51,116.75,48.34,116.93Zm-.75-11.05c-2.49.17-4.35,2.72-4.14,5.69s2.39,5.26,4.88,5.09,4.34-2.73,4.14-5.7S50.08,105.71,47.59,105.88Z"/><ellipse class="cls-1" cx="49.06" cy="112.36" rx="4.66" ry="5.54" transform="translate(-7.5 3.58) rotate(-3.88)"/><path d="M49.45,118c-2.64.18-5-2.22-5.17-5.34s1.76-5.81,4.4-6,5,2.22,5.16,5.34S52.08,117.85,49.45,118ZM48.7,107c-2.49.17-4.35,2.73-4.15,5.7s2.39,5.25,4.88,5.08,4.35-2.72,4.15-5.69S51.18,106.81,48.7,107Z"/><ellipse class="cls-1" cx="50.09" cy="113.57" rx="4.66" ry="5.54" transform="translate(-7.58 3.65) rotate(-3.88)"/><path d="M50.48,119.24c-2.64.18-4.95-2.22-5.17-5.34s1.76-5.81,4.4-6,4.95,2.21,5.16,5.34S53.11,119.06,50.48,119.24Zm-.76-11.06c-2.48.17-4.34,2.73-4.14,5.7S48,119.13,50.46,119s4.35-2.72,4.14-5.69S52.21,108,49.72,108.18Z"/><ellipse class="cls-1" cx="51.07" cy="114.85" rx="4.66" ry="5.54" transform="translate(-7.66 3.72) rotate(-3.88)"/><path d="M51.46,120.52c-2.64.18-5-2.22-5.17-5.34s1.76-5.81,4.4-6,5,2.22,5.16,5.34S54.09,120.34,51.46,120.52Zm-.76-11c-2.48.16-4.34,2.72-4.14,5.69s2.39,5.25,4.88,5.08,4.35-2.72,4.14-5.69S53.19,109.3,50.7,109.47Z"/><ellipse class="cls-1" cx="52.03" cy="116.17" rx="4.66" ry="5.54" transform="translate(-7.75 3.79) rotate(-3.88)"/><path d="M52.41,121.84c-2.63.18-4.95-2.22-5.16-5.34s1.76-5.82,4.39-6,5,2.21,5.16,5.34S55.05,121.66,52.41,121.84Zm-.75-11.06c-2.49.17-4.35,2.73-4.15,5.7s2.39,5.25,4.88,5.08,4.35-2.72,4.15-5.7S54.15,110.61,51.66,110.78Z"/><ellipse class="cls-1" cx="52.98" cy="117.48" rx="4.66" ry="5.54" transform="translate(-7.84 3.86) rotate(-3.88)"/><path d="M53.37,123.15c-2.64.18-4.95-2.22-5.17-5.34s1.76-5.81,4.4-6,4.95,2.21,5.16,5.34S56,123,53.37,123.15Zm-.75-11.06c-2.49.17-4.35,2.73-4.15,5.7s2.39,5.25,4.88,5.08,4.35-2.72,4.15-5.69S55.11,111.92,52.62,112.09Z"/><ellipse class="cls-1" cx="53.96" cy="118.75" rx="4.66" ry="5.54" transform="translate(-7.92 3.93) rotate(-3.88)"/><path d="M54.35,124.42c-2.64.18-5-2.22-5.16-5.34s1.75-5.82,4.39-6,5,2.21,5.16,5.34S57,124.24,54.35,124.42Zm-.75-11.06c-2.49.17-4.35,2.73-4.15,5.7s2.39,5.25,4.88,5.08,4.35-2.72,4.15-5.7S56.09,113.19,53.6,113.36Z"/><ellipse class="cls-1" cx="54.99" cy="119.94" rx="4.66" ry="5.54" transform="translate(-8 4) rotate(-3.88)"/><path d="M55.38,125.6c-2.64.18-5-2.21-5.16-5.34s1.75-5.81,4.39-6,5,2.22,5.16,5.34S58,125.43,55.38,125.6Zm-.75-11c-2.49.17-4.35,2.72-4.15,5.69s2.39,5.26,4.88,5.09,4.35-2.73,4.15-5.7S57.12,114.38,54.63,114.55Z"/><ellipse class="cls-1" cx="56.1" cy="121" rx="4.66" ry="5.54" transform="translate(-8.07 4.08) rotate(-3.88)"/><path d="M56.48,126.67c-2.63.18-4.95-2.22-5.16-5.34s1.76-5.81,4.39-6,5,2.22,5.17,5.34S59.12,126.49,56.48,126.67Zm-.75-11c-2.49.16-4.35,2.72-4.14,5.69s2.39,5.25,4.88,5.08,4.34-2.72,4.14-5.69S58.22,115.45,55.73,115.62Z"/><ellipse class="cls-1" cx="57.3" cy="121.91" rx="4.66" ry="5.54" transform="translate(-8.13 4.16) rotate(-3.88)"/><path d="M57.69,127.58c-2.64.18-4.95-2.22-5.16-5.34s1.75-5.81,4.39-6,4.95,2.21,5.16,5.34S60.32,127.4,57.69,127.58Zm-.75-11.06c-2.49.17-4.35,2.73-4.15,5.7s2.39,5.25,4.88,5.08,4.35-2.72,4.15-5.69S59.43,116.35,56.94,116.52Z"/><ellipse class="cls-1" cx="58.68" cy="122.64" rx="4.66" ry="5.54" transform="translate(-8.17 4.26) rotate(-3.88)"/><path d="M59.06,128.31c-2.63.17-5-2.22-5.16-5.35s1.76-5.81,4.39-6,5,2.22,5.16,5.35S61.7,128.13,59.06,128.31Zm-.75-11.06c-2.49.17-4.35,2.72-4.15,5.7S56.55,128.2,59,128s4.35-2.73,4.15-5.7S60.8,117.08,58.31,117.25Z"/><ellipse class="cls-1" cx="60.12" cy="123.1" rx="4.66" ry="5.54" transform="translate(-8.2 4.36) rotate(-3.88)"/><path d="M60.5,128.77c-2.63.18-5-2.22-5.16-5.34s1.76-5.81,4.39-6,5,2.21,5.17,5.34S63.14,128.59,60.5,128.77Zm-.75-11.06c-2.49.17-4.35,2.73-4.14,5.7s2.39,5.25,4.87,5.08,4.35-2.72,4.15-5.69S62.24,117.54,59.75,117.71Z"/><ellipse class="cls-1" cx="61.6" cy="123.31" rx="4.66" ry="5.54" transform="translate(-8.21 4.46) rotate(-3.88)"/><path d="M62,129c-2.63.17-4.95-2.22-5.16-5.35s1.76-5.81,4.39-6,4.95,2.22,5.17,5.35S64.62,128.8,62,129Zm-.75-11.06c-2.49.17-4.35,2.73-4.15,5.7s2.4,5.25,4.88,5.08,4.35-2.72,4.15-5.7S63.72,117.75,61.23,117.92Z"/><ellipse class="cls-1" cx="63.09" cy="123.28" rx="4.66" ry="5.54" transform="translate(-8.21 4.56) rotate(-3.88)"/><path d="M63.48,128.94c-2.64.18-4.95-2.21-5.16-5.34s1.76-5.81,4.39-6,4.95,2.22,5.16,5.34S66.11,128.77,63.48,128.94Zm-.75-11c-2.49.17-4.35,2.72-4.15,5.69s2.39,5.26,4.88,5.09,4.35-2.73,4.15-5.7S65.22,117.72,62.73,117.89Z"/><ellipse class="cls-1" cx="64.59" cy="123.02" rx="4.66" ry="5.54" transform="translate(-8.19 4.66) rotate(-3.88)"/><path d="M65,128.69c-2.63.18-4.95-2.22-5.16-5.34s1.76-5.81,4.39-6,5,2.22,5.16,5.34S67.61,128.51,65,128.69Zm-.75-11.06c-2.49.17-4.35,2.73-4.15,5.7s2.39,5.25,4.88,5.08,4.35-2.72,4.15-5.69S66.71,117.47,64.22,117.63Z"/><ellipse class="cls-1" cx="66.05" cy="122.56" rx="4.66" ry="5.54" transform="translate(-8.15 4.76) rotate(-3.88)"/><path d="M66.44,128.23c-2.64.18-4.95-2.22-5.17-5.34s1.76-5.81,4.4-6,5,2.21,5.16,5.34S69.07,128.05,66.44,128.23Zm-.75-11.06c-2.49.17-4.35,2.73-4.15,5.7s2.39,5.25,4.88,5.08,4.35-2.72,4.15-5.69S68.18,117,65.69,117.17Z"/><ellipse class="cls-1" cx="67.47" cy="121.91" rx="4.66" ry="5.54" transform="matrix(1, -0.07, 0.07, 1, -8.1, 4.85)"/><path d="M67.86,127.58c-2.64.18-5-2.22-5.16-5.34s1.75-5.81,4.39-6,5,2.22,5.16,5.34S70.49,127.4,67.86,127.58Zm-.75-11.06c-2.49.17-4.35,2.73-4.15,5.7s2.39,5.25,4.88,5.08,4.35-2.72,4.15-5.69S69.6,116.36,67.11,116.52Z"/><ellipse class="cls-1" cx="68.83" cy="121.09" rx="4.66" ry="5.54" transform="translate(-8.04 4.94) rotate(-3.88)"/><path d="M69.21,126.76c-2.63.18-4.95-2.22-5.16-5.34s1.76-5.82,4.39-6,5,2.21,5.17,5.34S71.85,126.58,69.21,126.76Zm-.75-11.06c-2.49.17-4.35,2.73-4.15,5.7s2.4,5.25,4.88,5.08,4.35-2.72,4.15-5.7S71,115.53,68.46,115.7Z"/><ellipse class="cls-1" cx="70.1" cy="120.11" rx="4.66" ry="5.54" transform="translate(-7.98 5.02) rotate(-3.88)"/><path d="M70.48,125.78c-2.63.18-5-2.22-5.16-5.34s1.76-5.81,4.39-6,5,2.21,5.16,5.34S73.11,125.6,70.48,125.78Zm-.75-11.06c-2.49.17-4.35,2.73-4.15,5.7s2.39,5.25,4.88,5.08,4.35-2.72,4.15-5.69S72.22,114.55,69.73,114.72Z"/><ellipse class="cls-1" cx="71.21" cy="119.05" rx="4.66" ry="5.54" transform="translate(-7.9 5.1) rotate(-3.88)"/><path d="M71.59,124.72c-2.63.18-5-2.22-5.16-5.34s1.76-5.81,4.4-6,5,2.22,5.16,5.34S74.23,124.54,71.59,124.72Zm-.75-11c-2.48.16-4.35,2.72-4.14,5.69s2.39,5.25,4.88,5.08,4.35-2.72,4.14-5.69S73.33,113.5,70.84,113.67Z"/><ellipse class="cls-1" cx="72.23" cy="117.92" rx="4.66" ry="5.54" transform="translate(-7.82 5.16) rotate(-3.88)"/><path d="M72.61,123.59c-2.63.18-5-2.22-5.16-5.34s1.76-5.81,4.39-6,5,2.21,5.16,5.34S75.25,123.41,72.61,123.59Zm-.75-11.06c-2.49.17-4.35,2.73-4.15,5.7s2.39,5.25,4.88,5.08,4.35-2.72,4.15-5.69S74.35,112.37,71.86,112.53Z"/><ellipse class="cls-1" cx="104.16" cy="94.08" rx="6.92" ry="6.53" transform="translate(9.39 197.6) rotate(-89.62)"/><path d="M103.89,101.18a6.46,6.46,0,0,1-4.07-1.68,7.22,7.22,0,0,1-2.35-4.84A7.42,7.42,0,0,1,99,89.48,6.55,6.55,0,0,1,103.61,87a6.83,6.83,0,0,1,7.23,6.49,7.38,7.38,0,0,1-1.57,5.18,6.56,6.56,0,0,1-4.57,2.49A7.3,7.3,0,0,1,103.89,101.18Zm.51-13.84a6.43,6.43,0,0,0-.76,0,6.24,6.24,0,0,0-4.33,2.36,7,7,0,0,0-1.49,4.91A6.84,6.84,0,0,0,100,99.21a6.06,6.06,0,0,0,4.63,1.58A6.22,6.22,0,0,0,109,98.43a7,7,0,0,0,1.49-4.91A6.55,6.55,0,0,0,104.4,87.34Z"/><ellipse class="cls-1" cx="104.01" cy="94.54" rx="6.92" ry="6.53" transform="translate(8.78 197.91) rotate(-89.62)"/><path d="M103.75,101.64a6.89,6.89,0,0,1-6.42-6.52A7.29,7.29,0,0,1,98.9,90a6.51,6.51,0,0,1,4.56-2.49,6.4,6.4,0,0,1,4.89,1.66A7.23,7.23,0,0,1,110.69,94a7,7,0,0,1-6.14,7.67A7.12,7.12,0,0,1,103.75,101.64Zm-6.08-6.55a6.49,6.49,0,0,0,6.86,6.16A6.63,6.63,0,0,0,110.34,94a6.84,6.84,0,0,0-2.22-4.58,6.09,6.09,0,0,0-4.63-1.57,6.19,6.19,0,0,0-4.33,2.35,7,7,0,0,0-1.49,4.91Z"/><ellipse class="cls-1" cx="103.77" cy="95.46" rx="6.92" ry="6.53" transform="translate(7.62 198.59) rotate(-89.62)"/><path d="M103.52,102.56A6.9,6.9,0,0,1,97.09,96a7.29,7.29,0,0,1,1.57-5.17,6.53,6.53,0,0,1,4.56-2.49,6.83,6.83,0,0,1,7.23,6.49,7,7,0,0,1-6.13,7.67A7.18,7.18,0,0,1,103.52,102.56ZM104,88.73a4.86,4.86,0,0,0-.76,0,6.15,6.15,0,0,0-4.32,2.35A7,7,0,0,0,97.44,96h0a6.48,6.48,0,0,0,6.85,6.16,6.63,6.63,0,0,0,5.81-7.27A6.52,6.52,0,0,0,104,88.73Z"/><ellipse class="cls-1" cx="103.55" cy="96.74" rx="6.92" ry="6.53" transform="translate(6.12 199.64) rotate(-89.62)"/><path d="M103.3,103.84a6.89,6.89,0,0,1-6.43-6.52A7,7,0,0,1,103,89.66a6.4,6.4,0,0,1,4.89,1.66,7.4,7.4,0,0,1,.77,10,6.56,6.56,0,0,1-4.56,2.49A7.18,7.18,0,0,1,103.3,103.84ZM103.8,90a6.42,6.42,0,0,0-6.58,7.28,6.46,6.46,0,0,0,6.85,6.16,6.15,6.15,0,0,0,4.32-2.35,7,7,0,0,0,1.49-4.91,6.8,6.8,0,0,0-2.22-4.59A6.12,6.12,0,0,0,103.8,90Z"/><ellipse class="cls-1" cx="103.44" cy="98.29" rx="6.92" ry="6.53" transform="translate(4.46 201.07) rotate(-89.62)"/><path d="M103.18,105.39a6.48,6.48,0,0,1-4.08-1.68,7.4,7.4,0,0,1-.77-10,6.53,6.53,0,0,1,4.57-2.49,6.82,6.82,0,0,1,7.22,6.49,7.33,7.33,0,0,1-1.57,5.18,6.56,6.56,0,0,1-4.56,2.49A7.3,7.3,0,0,1,103.18,105.39Zm-6.07-6.55a6.86,6.86,0,0,0,2.22,4.59A6.08,6.08,0,0,0,104,105a6.2,6.2,0,0,0,4.33-2.36,7,7,0,0,0,1.49-4.91,6.48,6.48,0,0,0-6.86-6.15,6.17,6.17,0,0,0-4.32,2.35,7,7,0,0,0-1.49,4.91Z"/><ellipse class="cls-1" cx="103.55" cy="100.01" rx="6.92" ry="6.53" transform="translate(2.85 202.88) rotate(-89.62)"/><path d="M103.3,107.11a6.89,6.89,0,0,1-6.43-6.52A7,7,0,0,1,103,92.93a6.4,6.4,0,0,1,4.89,1.66,7.17,7.17,0,0,1,2.34,4.83,7.33,7.33,0,0,1-1.57,5.18,6.56,6.56,0,0,1-4.56,2.49A7.18,7.18,0,0,1,103.3,107.11Zm.5-13.84a6.42,6.42,0,0,0-6.58,7.29,6.48,6.48,0,0,0,6.85,6.16,6.2,6.2,0,0,0,4.32-2.36,7,7,0,0,0,1.49-4.91,6.75,6.75,0,0,0-2.22-4.58A6.13,6.13,0,0,0,103.8,93.27Z"/><ellipse class="cls-1" cx="103.97" cy="101.8" rx="6.92" ry="6.53" transform="translate(1.48 205.09) rotate(-89.62)"/><path d="M103.72,108.9a6.9,6.9,0,0,1-6.43-6.52,7.38,7.38,0,0,1,1.57-5.18,6.55,6.55,0,0,1,4.57-2.48,6.37,6.37,0,0,1,4.88,1.66,7.18,7.18,0,0,1,2.35,4.83,7.42,7.42,0,0,1-1.57,5.18,6.56,6.56,0,0,1-4.57,2.49A7.12,7.12,0,0,1,103.72,108.9Zm-6.08-6.55a6.49,6.49,0,0,0,6.85,6.16,6.24,6.24,0,0,0,4.33-2.36,6.94,6.94,0,0,0,1.49-4.91,6.84,6.84,0,0,0-2.22-4.58,6.14,6.14,0,0,0-4.63-1.58,6.22,6.22,0,0,0-4.33,2.36,7,7,0,0,0-1.49,4.91Z"/><ellipse class="cls-1" cx="104.82" cy="103.57" rx="6.92" ry="6.53" transform="translate(0.55 207.69) rotate(-89.62)"/><path d="M104.56,110.67a6.9,6.9,0,0,1-6.43-6.52A7.42,7.42,0,0,1,99.7,99a6.55,6.55,0,0,1,4.57-2.48A6.83,6.83,0,0,1,111.5,103a7.38,7.38,0,0,1-1.57,5.18,6.56,6.56,0,0,1-4.57,2.49A7.12,7.12,0,0,1,104.56,110.67Zm.5-13.84a6.43,6.43,0,0,0-.76,0A6.24,6.24,0,0,0,100,99.21a7,7,0,0,0-1.49,4.91,6.49,6.49,0,0,0,6.85,6.16,6.22,6.22,0,0,0,4.33-2.36,7,7,0,0,0,1.49-4.91A6.55,6.55,0,0,0,105.06,96.83Z"/><ellipse class="cls-1" cx="105.8" cy="104.83" rx="6.92" ry="6.53" transform="translate(0.26 209.93) rotate(-89.62)"/><path d="M105.54,111.93a6.88,6.88,0,0,1-6.42-6.51,7.33,7.33,0,0,1,1.57-5.18,6.54,6.54,0,0,1,4.56-2.49,6.83,6.83,0,0,1,7.23,6.5,7.38,7.38,0,0,1-1.57,5.18,6.55,6.55,0,0,1-4.57,2.48A5.35,5.35,0,0,1,105.54,111.93ZM106,98.1a6.43,6.43,0,0,0-.76,0,6.24,6.24,0,0,0-4.33,2.36,6.94,6.94,0,0,0-1.49,4.91h0a6.49,6.49,0,0,0,6.86,6.16,6.22,6.22,0,0,0,4.32-2.36,7,7,0,0,0,1.49-4.91A6.53,6.53,0,0,0,106,98.1Z"/><ellipse class="cls-1" cx="106.87" cy="105.78" rx="6.92" ry="6.53" transform="translate(0.38 211.94) rotate(-89.62)"/><path d="M106.62,112.88a6.9,6.9,0,0,1-6.43-6.52,7.33,7.33,0,0,1,1.57-5.18,6.55,6.55,0,0,1,4.57-2.48,6.82,6.82,0,0,1,7.22,6.49,7,7,0,0,1-6.13,7.67A7.18,7.18,0,0,1,106.62,112.88ZM107.11,99a6.49,6.49,0,0,0-.76,0,6.22,6.22,0,0,0-4.32,2.36,7,7,0,0,0-1.49,4.91h0a6.48,6.48,0,0,0,6.85,6.16,6.66,6.66,0,0,0,5.82-7.27A6.55,6.55,0,0,0,107.11,99Z"/><ellipse class="cls-1" cx="108.06" cy="106.49" rx="6.92" ry="6.53" transform="translate(0.85 213.84) rotate(-89.62)"/><path d="M107.8,113.59a6.43,6.43,0,0,1-4.08-1.68,7.21,7.21,0,0,1-2.34-4.83A7.38,7.38,0,0,1,103,101.9a6.56,6.56,0,0,1,4.57-2.49,6.83,6.83,0,0,1,7.22,6.5,7.33,7.33,0,0,1-1.57,5.18,6.53,6.53,0,0,1-4.56,2.48A5.48,5.48,0,0,1,107.8,113.59Zm.5-13.83a6.49,6.49,0,0,0-.76,0,6.22,6.22,0,0,0-4.32,2.36,6.94,6.94,0,0,0-1.49,4.91,6.84,6.84,0,0,0,2.22,4.58,6.12,6.12,0,0,0,4.63,1.58,6.24,6.24,0,0,0,4.33-2.36,7,7,0,0,0,1.49-4.91A6.55,6.55,0,0,0,108.3,99.76Z"/><ellipse class="cls-1" cx="109.34" cy="107" rx="6.92" ry="6.53" transform="translate(1.61 215.62) rotate(-89.62)"/><path d="M109.08,114.1a6.48,6.48,0,0,1-4.08-1.68,7.23,7.23,0,0,1-2.34-4.83h0a7.31,7.31,0,0,1,1.57-5.18,6.56,6.56,0,0,1,4.56-2.49,6.4,6.4,0,0,1,4.89,1.66,7.17,7.17,0,0,1,2.34,4.84,7,7,0,0,1-6.13,7.66A7.3,7.3,0,0,1,109.08,114.1Zm.51-13.83a6.66,6.66,0,0,0-.77,0,6.18,6.18,0,0,0-4.32,2.36,6.94,6.94,0,0,0-1.49,4.91h0a6.8,6.8,0,0,0,2.22,4.58,6.08,6.08,0,0,0,4.63,1.57,6.64,6.64,0,0,0,5.82-7.26,6.83,6.83,0,0,0-2.23-4.59A6.08,6.08,0,0,0,109.59,100.27Z"/><ellipse class="cls-1" cx="110.68" cy="107.32" rx="6.92" ry="6.53" transform="translate(2.62 217.27) rotate(-89.62)"/><path d="M110.42,114.42A6.89,6.89,0,0,1,104,107.9a7.33,7.33,0,0,1,1.57-5.18,6.53,6.53,0,0,1,4.56-2.48,6.84,6.84,0,0,1,7.23,6.49,7.38,7.38,0,0,1-1.57,5.18,6.56,6.56,0,0,1-4.57,2.49A7.12,7.12,0,0,1,110.42,114.42Zm.5-13.84a6.43,6.43,0,0,0-.76,0,6.24,6.24,0,0,0-4.33,2.36,7,7,0,0,0-1.49,4.91h0A6.49,6.49,0,0,0,111.2,114a6.22,6.22,0,0,0,4.32-2.36,7,7,0,0,0,1.49-4.91A6.54,6.54,0,0,0,110.92,100.58Z"/><ellipse class="cls-1" cx="112.04" cy="107.45" rx="6.92" ry="6.53" transform="translate(3.84 218.77) rotate(-89.62)"/><path d="M111.78,114.55a6.41,6.41,0,0,1-4.08-1.68,7.21,7.21,0,0,1-2.34-4.83h0a7,7,0,0,1,6.13-7.67,6.84,6.84,0,0,1,7.23,6.5,7.33,7.33,0,0,1-1.57,5.18,6.55,6.55,0,0,1-4.56,2.48A5.48,5.48,0,0,1,111.78,114.55ZM105.71,108a6.75,6.75,0,0,0,2.22,4.58,6.12,6.12,0,0,0,4.63,1.58,6.24,6.24,0,0,0,4.33-2.36,7,7,0,0,0,1.48-4.91,6.48,6.48,0,0,0-6.85-6.16,6.64,6.64,0,0,0-5.81,7.27Z"/><ellipse class="cls-1" cx="113.4" cy="107.43" rx="6.92" ry="6.53" transform="translate(5.22 220.11) rotate(-89.62)"/><path d="M113.14,114.53a6.48,6.48,0,0,1-4.08-1.68,7.26,7.26,0,0,1-2.34-4.84h0a7,7,0,0,1,6.14-7.66,6.82,6.82,0,0,1,7.22,6.49,7.33,7.33,0,0,1-1.57,5.18,6.56,6.56,0,0,1-4.56,2.49A7.3,7.3,0,0,1,113.14,114.53ZM107.07,108a6.88,6.88,0,0,0,2.22,4.59,6.08,6.08,0,0,0,4.63,1.57,6.24,6.24,0,0,0,4.33-2.36,7,7,0,0,0,1.49-4.91,6.5,6.5,0,0,0-6.86-6.16,6.64,6.64,0,0,0-5.81,7.27Z"/><ellipse class="cls-1" cx="114.73" cy="107.26" rx="6.92" ry="6.53" transform="translate(6.71 221.27) rotate(-89.62)"/><path d="M114.47,114.36a6.48,6.48,0,0,1-4.08-1.68,7.26,7.26,0,0,1-2.34-4.84,7.38,7.38,0,0,1,1.57-5.18,6.55,6.55,0,0,1,4.57-2.48,6.37,6.37,0,0,1,4.88,1.66,7.12,7.12,0,0,1,2.34,4.83,7.33,7.33,0,0,1-1.57,5.18,6.54,6.54,0,0,1-4.56,2.49A7.3,7.3,0,0,1,114.47,114.36Zm.51-13.84a6.66,6.66,0,0,0-.77,0,6.22,6.22,0,0,0-4.32,2.36,7,7,0,0,0-1.49,4.91,6.84,6.84,0,0,0,2.22,4.58,6,6,0,0,0,4.63,1.58,6.24,6.24,0,0,0,4.33-2.36,6.94,6.94,0,0,0,1.49-4.91,6.84,6.84,0,0,0-2.22-4.58A6.14,6.14,0,0,0,115,100.52Z"/><ellipse class="cls-1" cx="116" cy="106.95" rx="6.92" ry="6.53" transform="translate(8.27 222.24) rotate(-89.62)"/><path d="M115.75,114.05a6.89,6.89,0,0,1-6.43-6.51,7.33,7.33,0,0,1,1.57-5.18,6.56,6.56,0,0,1,4.57-2.49,6.47,6.47,0,0,1,4.88,1.66,7.17,7.17,0,0,1,2.34,4.84,7.33,7.33,0,0,1-1.57,5.18,6.55,6.55,0,0,1-4.56,2.48A5.38,5.38,0,0,1,115.75,114.05Zm-6.08-6.54a6.48,6.48,0,0,0,6.85,6.16,6.24,6.24,0,0,0,4.33-2.36,7,7,0,0,0,1.49-4.91,6.81,6.81,0,0,0-2.23-4.58,6,6,0,0,0-4.63-1.58,6.22,6.22,0,0,0-4.32,2.36,7,7,0,0,0-1.49,4.91Z"/><ellipse class="cls-1" cx="117.18" cy="106.54" rx="6.92" ry="6.53" transform="translate(9.86 223) rotate(-89.62)"/><path d="M116.92,113.64a6.46,6.46,0,0,1-4.08-1.68,7.21,7.21,0,0,1-2.34-4.84h0a7,7,0,0,1,6.13-7.66,6.83,6.83,0,0,1,7.23,6.49,7.33,7.33,0,0,1-1.57,5.18,6.56,6.56,0,0,1-4.56,2.49A7.3,7.3,0,0,1,116.92,113.64Zm-6.07-6.55a6.78,6.78,0,0,0,2.22,4.59,6.06,6.06,0,0,0,4.63,1.57,6.16,6.16,0,0,0,4.32-2.36,6.94,6.94,0,0,0,1.49-4.91,6.47,6.47,0,0,0-6.85-6.15,6.63,6.63,0,0,0-5.81,7.26Z"/><ellipse class="cls-1" cx="118.72" cy="105.74" rx="6.92" ry="6.53" transform="translate(12.19 223.75) rotate(-89.62)"/><path d="M118.47,112.84a6.89,6.89,0,0,1-6.43-6.52,7.33,7.33,0,0,1,1.57-5.18,6.55,6.55,0,0,1,4.56-2.48,6.83,6.83,0,0,1,7.23,6.49,7.33,7.33,0,0,1-1.57,5.18,6.56,6.56,0,0,1-4.57,2.49A7,7,0,0,1,118.47,112.84ZM119,99a6.45,6.45,0,0,0-.76,0,6.24,6.24,0,0,0-4.33,2.36,7,7,0,0,0-1.49,4.91,6.49,6.49,0,0,0,6.86,6.16,6.2,6.2,0,0,0,4.32-2.36,6.94,6.94,0,0,0,1.49-4.91A6.52,6.52,0,0,0,119,99Z"/><ellipse class="cls-1" cx="120.24" cy="104.56" rx="6.92" ry="6.53" transform="translate(14.88 224.1) rotate(-89.62)"/><path d="M120,111.66A6.46,6.46,0,0,1,115.9,110a7.21,7.21,0,0,1-2.34-4.84h0a7.29,7.29,0,0,1,1.57-5.17,6.53,6.53,0,0,1,4.56-2.49,6.4,6.4,0,0,1,4.89,1.66,7.19,7.19,0,0,1,2.34,4.83,7,7,0,0,1-6.13,7.67A7.3,7.3,0,0,1,120,111.66Zm.51-13.83a5,5,0,0,0-.77,0,6.15,6.15,0,0,0-4.32,2.35,7,7,0,0,0-1.49,4.91h0a6.78,6.78,0,0,0,2.22,4.59,6.08,6.08,0,0,0,4.63,1.57,6.63,6.63,0,0,0,5.81-7.27,6.75,6.75,0,0,0-2.22-4.58A6,6,0,0,0,120.49,97.83Z"/><ellipse class="cls-1" cx="121.48" cy="103.2" rx="6.92" ry="6.53" transform="translate(17.48 223.99) rotate(-89.62)"/><path d="M121.22,110.3a6.44,6.44,0,0,1-4.08-1.69,7.21,7.21,0,0,1-2.34-4.83h0a7,7,0,0,1,6.14-7.66,6.82,6.82,0,0,1,7.22,6.49,7.33,7.33,0,0,1-1.57,5.18,6.54,6.54,0,0,1-4.56,2.49A7.3,7.3,0,0,1,121.22,110.3Zm-6.07-6.55a6.84,6.84,0,0,0,2.22,4.58,6.1,6.1,0,0,0,4.63,1.58,6.24,6.24,0,0,0,4.33-2.36,7,7,0,0,0,1.49-4.91A6.49,6.49,0,0,0,121,96.48a6.64,6.64,0,0,0-5.82,7.27Z"/><ellipse class="cls-1" cx="122.47" cy="101.73" rx="6.92" ry="6.53" transform="translate(19.93 223.52) rotate(-89.62)"/><path d="M122.22,108.83a6.9,6.9,0,0,1-6.43-6.52,7.34,7.34,0,0,1,1.57-5.17,6.53,6.53,0,0,1,4.57-2.49,6.83,6.83,0,0,1,7.23,6.49,7,7,0,0,1-6.14,7.67A7.18,7.18,0,0,1,122.22,108.83ZM122.71,95a4.7,4.7,0,0,0-.75,0,6.17,6.17,0,0,0-4.33,2.35,7,7,0,0,0-1.49,4.91h0a6.48,6.48,0,0,0,6.85,6.16,6.65,6.65,0,0,0,5.82-7.27A6.54,6.54,0,0,0,122.71,95Z"/><ellipse class="cls-1" cx="123.24" cy="100.24" rx="6.92" ry="6.53" transform="translate(22.18 222.8) rotate(-89.62)"/><path d="M123,107.34a6.46,6.46,0,0,1-4.08-1.68,7.26,7.26,0,0,1-2.34-4.84,7.33,7.33,0,0,1,1.57-5.18,6.55,6.55,0,0,1,4.56-2.48,6.83,6.83,0,0,1,7.23,6.49,7.33,7.33,0,0,1-1.57,5.18,6.56,6.56,0,0,1-4.56,2.49A7.3,7.3,0,0,1,123,107.34Zm-6.07-6.55a6.8,6.8,0,0,0,2.22,4.58,6,6,0,0,0,4.63,1.58,6.24,6.24,0,0,0,4.33-2.36,7,7,0,0,0,1.48-4.91,6.48,6.48,0,0,0-6.85-6.16,6.2,6.2,0,0,0-4.32,2.36,7,7,0,0,0-1.49,4.91Z"/><ellipse class="cls-1" cx="123.81" cy="98.8" rx="6.92" ry="6.53" transform="translate(24.19 221.95) rotate(-89.62)"/><path d="M123.55,105.9a6.46,6.46,0,0,1-4.08-1.68,7.4,7.4,0,0,1-.77-10,6.56,6.56,0,0,1,4.56-2.49,6.83,6.83,0,0,1,7.23,6.49,7.31,7.31,0,0,1-1.57,5.18,6.56,6.56,0,0,1-4.56,2.49A7.3,7.3,0,0,1,123.55,105.9Zm-6.07-6.55a6.82,6.82,0,0,0,2.22,4.59,6.08,6.08,0,0,0,4.63,1.57,6.2,6.2,0,0,0,4.33-2.36,7,7,0,0,0,1.48-4.91,6.47,6.47,0,0,0-6.85-6.15A6.15,6.15,0,0,0,119,94.44a7,7,0,0,0-1.49,4.91Z"/><ellipse class="cls-1" cx="124.21" cy="97.5" rx="6.92" ry="6.53" transform="translate(25.89 221.05) rotate(-89.62)"/><path d="M124,104.6a6.48,6.48,0,0,1-4.08-1.68,7.26,7.26,0,0,1-2.34-4.84,7.33,7.33,0,0,1,1.57-5.18,6.55,6.55,0,0,1,4.57-2.48,6.39,6.39,0,0,1,4.88,1.66,7.17,7.17,0,0,1,2.34,4.83,7.33,7.33,0,0,1-1.57,5.18,6.56,6.56,0,0,1-4.56,2.49A7.3,7.3,0,0,1,124,104.6Zm-6.07-6.55a6.8,6.8,0,0,0,2.22,4.58,6,6,0,0,0,4.63,1.58,6.24,6.24,0,0,0,4.33-2.36,7,7,0,0,0,1.49-4.91,6.81,6.81,0,0,0-2.23-4.58,6.07,6.07,0,0,0-4.63-1.58,6.2,6.2,0,0,0-4.32,2.36,7,7,0,0,0-1.49,4.91Z"/><ellipse class="cls-1" cx="124.47" cy="96.41" rx="6.92" ry="6.53" transform="translate(27.23 220.23) rotate(-89.62)"/><path d="M124.22,103.51A6.89,6.89,0,0,1,117.79,97h0a7,7,0,0,1,6.13-7.66,6.83,6.83,0,0,1,7.23,6.49,7.33,7.33,0,0,1-1.57,5.18,6.56,6.56,0,0,1-4.56,2.49A7.18,7.18,0,0,1,124.22,103.51ZM118.14,97a6.48,6.48,0,0,0,6.85,6.16,6.24,6.24,0,0,0,4.33-2.36,7,7,0,0,0,1.48-4.91A6.48,6.48,0,0,0,124,89.69,6.64,6.64,0,0,0,118.14,97Z"/><ellipse class="cls-1" cx="124.61" cy="95.61" rx="6.92" ry="6.53" transform="translate(28.17 219.58) rotate(-89.62)"/><path d="M124.36,102.71a6.9,6.9,0,0,1-6.43-6.52h0a7,7,0,0,1,6.14-7.66A6.84,6.84,0,0,1,131.3,95a7.38,7.38,0,0,1-1.57,5.17,6.56,6.56,0,0,1-4.57,2.49A7.12,7.12,0,0,1,124.36,102.71Zm-6.08-6.55a6.47,6.47,0,0,0,6.85,6.16,6.23,6.23,0,0,0,4.33-2.35A7,7,0,0,0,131,95.06a6.47,6.47,0,0,0-6.85-6.16,6.64,6.64,0,0,0-5.82,7.26Z"/><ellipse class="cls-1" cx="124.67" cy="95.19" rx="6.92" ry="6.53" transform="translate(28.65 219.22) rotate(-89.62)"/><path d="M124.41,102.29a6.48,6.48,0,0,1-4.08-1.68A7.26,7.26,0,0,1,118,95.77h0a7,7,0,0,1,6.14-7.66A6.37,6.37,0,0,1,129,89.77a7.12,7.12,0,0,1,2.34,4.83,7,7,0,0,1-6.13,7.67A7.3,7.3,0,0,1,124.41,102.29Zm.51-13.84c-.25,0-.51,0-.77,0a6.64,6.64,0,0,0-5.81,7.27h0a6.88,6.88,0,0,0,2.22,4.59,6.08,6.08,0,0,0,4.63,1.57A6.66,6.66,0,0,0,131,94.63a6.81,6.81,0,0,0-2.23-4.58A6.09,6.09,0,0,0,124.92,88.45Z"/><ellipse class="cls-1" cx="124.73" cy="94.33" rx="6.92" ry="6.53" transform="translate(29.57 218.43) rotate(-89.62)"/><path d="M124.48,101.43a6.89,6.89,0,0,1-6.43-6.52h0a7,7,0,0,1,6.13-7.66,6.83,6.83,0,0,1,7.23,6.5,7.3,7.3,0,0,1-1.57,5.17,6.56,6.56,0,0,1-4.56,2.49A7.18,7.18,0,0,1,124.48,101.43Zm-6.08-6.55a6.47,6.47,0,0,0,6.85,6.16,6.2,6.2,0,0,0,4.33-2.36,7,7,0,0,0,1.48-4.9,6.47,6.47,0,0,0-6.85-6.16,6.63,6.63,0,0,0-5.81,7.26Z"/><ellipse class="cls-1" cx="124.72" cy="93.28" rx="6.92" ry="6.53" transform="translate(30.61 217.38) rotate(-89.62)"/><path d="M124.47,100.38A6.9,6.9,0,0,1,118,93.87a7.36,7.36,0,0,1,1.57-5.18,6.56,6.56,0,0,1,4.57-2.49,6.41,6.41,0,0,1,4.88,1.66,7.22,7.22,0,0,1,2.35,4.84,7,7,0,0,1-6.14,7.66A7.18,7.18,0,0,1,124.47,100.38Zm.5-13.83a6.43,6.43,0,0,0-.76,0,6.19,6.19,0,0,0-4.33,2.36,6.94,6.94,0,0,0-1.49,4.91,6.47,6.47,0,0,0,6.85,6.15,6.64,6.64,0,0,0,5.82-7.26,6.86,6.86,0,0,0-2.22-4.59A6.13,6.13,0,0,0,125,86.55Z"/><ellipse class="cls-1" cx="124.63" cy="92.24" rx="6.92" ry="6.53" transform="translate(31.56 216.25) rotate(-89.62)"/><path d="M124.37,99.34a6.48,6.48,0,0,1-4.08-1.68A7.26,7.26,0,0,1,118,92.82a7.33,7.33,0,0,1,1.57-5.18,6.55,6.55,0,0,1,4.57-2.48A6.39,6.39,0,0,1,129,86.82a7.17,7.17,0,0,1,2.34,4.83,7.33,7.33,0,0,1-1.57,5.18,6.56,6.56,0,0,1-4.56,2.49A7.3,7.3,0,0,1,124.37,99.34Zm.51-13.84c-.25,0-.51,0-.77,0a6.2,6.2,0,0,0-4.32,2.36,7,7,0,0,0-1.49,4.91,6.8,6.8,0,0,0,2.22,4.58A6,6,0,0,0,125.15,99a6.24,6.24,0,0,0,4.33-2.36A7,7,0,0,0,131,91.68a6.81,6.81,0,0,0-2.23-4.58A6.09,6.09,0,0,0,124.88,85.5Z"/><ellipse class="cls-1" cx="124.45" cy="91.19" rx="6.92" ry="6.53" transform="translate(32.44 215.03) rotate(-89.62)"/><path d="M124.2,98.29a6.9,6.9,0,0,1-6.43-6.52,7.38,7.38,0,0,1,1.57-5.18,6.55,6.55,0,0,1,4.57-2.48,6.37,6.37,0,0,1,4.88,1.66,7.18,7.18,0,0,1,2.35,4.83A7,7,0,0,1,125,98.27,7.12,7.12,0,0,1,124.2,98.29Zm.5-13.83a6.43,6.43,0,0,0-.76,0,6.22,6.22,0,0,0-4.33,2.36,7,7,0,0,0-1.49,4.91A6.49,6.49,0,0,0,125,97.9a6.66,6.66,0,0,0,5.82-7.27,6.84,6.84,0,0,0-2.22-4.58A6.07,6.07,0,0,0,124.7,84.46Z"/><ellipse class="cls-1" cx="124.19" cy="90.12" rx="6.92" ry="6.53" transform="translate(33.24 213.71) rotate(-89.62)"/><path d="M123.94,97.22a6.89,6.89,0,0,1-6.43-6.51,7.38,7.38,0,0,1,1.57-5.18A6.56,6.56,0,0,1,123.65,83a6.45,6.45,0,0,1,4.88,1.66,7.22,7.22,0,0,1,2.35,4.84,7,7,0,0,1-6.14,7.66A5.38,5.38,0,0,1,123.94,97.22Zm.5-13.83a6.43,6.43,0,0,0-.76,0,6.22,6.22,0,0,0-4.33,2.36,6.94,6.94,0,0,0-1.49,4.91h0a6.49,6.49,0,0,0,6.85,6.16,6.66,6.66,0,0,0,5.82-7.27A6.84,6.84,0,0,0,128.31,85,6.14,6.14,0,0,0,124.44,83.39Z"/><ellipse class="cls-1" cx="123.85" cy="89.04" rx="6.92" ry="6.53" transform="translate(33.98 212.29) rotate(-89.62)"/><path d="M123.6,96.14a6.89,6.89,0,0,1-6.43-6.52h0A7,7,0,0,1,123.3,82a6.84,6.84,0,0,1,7.23,6.49A7.31,7.31,0,0,1,129,93.63a6.56,6.56,0,0,1-4.57,2.49A7,7,0,0,1,123.6,96.14Zm-6.09-6.55a6.48,6.48,0,0,0,6.86,6.16,6.16,6.16,0,0,0,4.32-2.36,6.94,6.94,0,0,0,1.49-4.91,6.47,6.47,0,0,0-6.85-6.15,6.64,6.64,0,0,0-5.82,7.26Z"/><ellipse class="cls-1" cx="123.42" cy="87.92" rx="6.92" ry="6.53" transform="translate(34.67 210.75) rotate(-89.62)"/><path d="M123.17,95a6.89,6.89,0,0,1-6.43-6.51h0a7,7,0,0,1,6.14-7.67,6.84,6.84,0,0,1,7.22,6.5,7.33,7.33,0,0,1-1.57,5.18A6.55,6.55,0,0,1,124,95,5.38,5.38,0,0,1,123.17,95Zm-6.08-6.54a6.48,6.48,0,0,0,6.85,6.16,6.24,6.24,0,0,0,4.33-2.36,7,7,0,0,0,1.49-4.91,6.48,6.48,0,0,0-6.86-6.16,6.64,6.64,0,0,0-5.81,7.27Z"/><ellipse class="cls-1" cx="122.91" cy="86.77" rx="6.92" ry="6.53" transform="translate(35.32 209.1) rotate(-89.62)"/><path d="M122.66,93.87a6.9,6.9,0,0,1-6.43-6.52h0a7,7,0,0,1,6.14-7.66,6.84,6.84,0,0,1,7.23,6.49A7.37,7.37,0,0,1,128,91.36a6.54,6.54,0,0,1-4.56,2.49A7.18,7.18,0,0,1,122.66,93.87Zm-6.08-6.55a6.48,6.48,0,0,0,6.85,6.16,6.2,6.2,0,0,0,4.33-2.36,6.93,6.93,0,0,0,1.49-4.9,6.47,6.47,0,0,0-6.85-6.16,6.63,6.63,0,0,0-5.82,7.26Z"/><ellipse class="cls-1" cx="122.32" cy="85.57" rx="6.92" ry="6.53" transform="translate(35.94 207.32) rotate(-89.62)"/><path d="M122.07,92.67a6.9,6.9,0,0,1-6.43-6.52A7.34,7.34,0,0,1,117.21,81a6.53,6.53,0,0,1,4.57-2.49,6.37,6.37,0,0,1,4.88,1.66A7.2,7.2,0,0,1,129,85a7.42,7.42,0,0,1-1.57,5.18,6.56,6.56,0,0,1-4.57,2.49A7.12,7.12,0,0,1,122.07,92.67ZM116,86.12a6.49,6.49,0,0,0,6.85,6.16,6.2,6.2,0,0,0,4.33-2.36A6.94,6.94,0,0,0,128.66,85a6.84,6.84,0,0,0-2.22-4.58,6.09,6.09,0,0,0-4.63-1.57,6.17,6.17,0,0,0-4.33,2.35A7,7,0,0,0,116,86.12Z"/><ellipse class="cls-1" cx="121.66" cy="84.31" rx="6.92" ry="6.53" transform="translate(36.53 205.4) rotate(-89.62)"/><path d="M121.39,91.41a6.46,6.46,0,0,1-4.07-1.68A7.2,7.2,0,0,1,115,84.89h0a7,7,0,0,1,6.14-7.66A6.37,6.37,0,0,1,126,78.89a7.2,7.2,0,0,1,2.35,4.84,7.34,7.34,0,0,1-1.57,5.17,6.56,6.56,0,0,1-4.57,2.49A7.3,7.3,0,0,1,121.39,91.41Zm.51-13.83a6.43,6.43,0,0,0-.76,0,6.64,6.64,0,0,0-5.82,7.26h0a6.84,6.84,0,0,0,2.22,4.59A6.09,6.09,0,0,0,122.17,91a6.21,6.21,0,0,0,4.33-2.35A7,7,0,0,0,128,83.76a6.84,6.84,0,0,0-2.22-4.59A6.07,6.07,0,0,0,121.9,77.58Z"/><ellipse class="cls-1" cx="120.91" cy="82.99" rx="6.92" ry="6.53" transform="translate(37.11 203.34) rotate(-89.62)"/><path d="M120.65,90.09a6.46,6.46,0,0,1-4.08-1.68,7.17,7.17,0,0,1-2.34-4.84,7.29,7.29,0,0,1,1.57-5.17,6.53,6.53,0,0,1,4.56-2.49,6.83,6.83,0,0,1,7.23,6.49A7.33,7.33,0,0,1,126,87.58a6.56,6.56,0,0,1-4.57,2.49A7.18,7.18,0,0,1,120.65,90.09Zm-6.08-6.55a6.83,6.83,0,0,0,2.23,4.59,6.06,6.06,0,0,0,4.63,1.57,6.18,6.18,0,0,0,4.32-2.36,6.94,6.94,0,0,0,1.49-4.91,6.47,6.47,0,0,0-6.85-6.15,6.19,6.19,0,0,0-4.33,2.35,7,7,0,0,0-1.49,4.91Z"/><ellipse class="cls-1" cx="120.08" cy="81.59" rx="6.92" ry="6.53" transform="translate(37.69 201.13) rotate(-89.62)"/><path d="M119.83,88.69a6.89,6.89,0,0,1-6.43-6.51A7.33,7.33,0,0,1,115,77a6.56,6.56,0,0,1,4.57-2.49,6.83,6.83,0,0,1,7.22,6.5,7.33,7.33,0,0,1-1.57,5.18,6.55,6.55,0,0,1-4.56,2.48A5.38,5.38,0,0,1,119.83,88.69Zm.49-13.83a6.49,6.49,0,0,0-.76,0,6.22,6.22,0,0,0-4.32,2.36,6.94,6.94,0,0,0-1.49,4.91,6.48,6.48,0,0,0,6.85,6.16A6.24,6.24,0,0,0,124.93,86,7,7,0,0,0,126.42,81,6.55,6.55,0,0,0,120.32,74.86Z"/><ellipse class="cls-1" cx="119.18" cy="80.12" rx="6.92" ry="6.53" transform="translate(38.27 198.76) rotate(-89.62)"/><path d="M118.92,87.22a6.46,6.46,0,0,1-4.08-1.68,7.17,7.17,0,0,1-2.34-4.84,7.33,7.33,0,0,1,1.57-5.18A6.55,6.55,0,0,1,118.63,73a6.4,6.4,0,0,1,4.89,1.66,7.21,7.21,0,0,1,2.34,4.83,7.33,7.33,0,0,1-1.57,5.18,6.56,6.56,0,0,1-4.57,2.49A7.18,7.18,0,0,1,118.92,87.22Zm.51-13.84c-.26,0-.51,0-.77,0a6.24,6.24,0,0,0-4.33,2.36,7,7,0,0,0-1.49,4.91,6.81,6.81,0,0,0,2.23,4.58,6,6,0,0,0,4.63,1.58A6.22,6.22,0,0,0,124,84.47a6.94,6.94,0,0,0,1.49-4.91A6.84,6.84,0,0,0,123.29,75,6.13,6.13,0,0,0,119.43,73.38Z"/><ellipse class="cls-1" cx="118.2" cy="78.55" rx="6.92" ry="6.53" transform="translate(38.86 196.22) rotate(-89.62)"/><path d="M118,85.65a6.89,6.89,0,0,1-6.43-6.52A7.29,7.29,0,0,1,113.09,74a6.56,6.56,0,0,1,4.56-2.49,6.4,6.4,0,0,1,4.89,1.66A7.23,7.23,0,0,1,124.88,78,6.77,6.77,0,0,1,118,85.65Zm-6.09-6.55a6.48,6.48,0,0,0,6.86,6.16A6.63,6.63,0,0,0,124.53,78a6.84,6.84,0,0,0-2.22-4.59,6.08,6.08,0,0,0-4.63-1.57,6.23,6.23,0,0,0-4.33,2.35,7,7,0,0,0-1.49,4.91Z"/><ellipse class="cls-1" cx="117.14" cy="76.88" rx="6.92" ry="6.53" transform="translate(39.48 193.51) rotate(-89.62)"/><path d="M116.88,84a6.43,6.43,0,0,1-4.08-1.68,7.21,7.21,0,0,1-2.34-4.83h0a7,7,0,0,1,6.14-7.67,6.43,6.43,0,0,1,4.88,1.67,7.12,7.12,0,0,1,2.34,4.83,7.33,7.33,0,0,1-1.57,5.18A6.55,6.55,0,0,1,117.69,84,5.48,5.48,0,0,1,116.88,84Zm.51-13.83a6.42,6.42,0,0,0-6.58,7.29h0A6.84,6.84,0,0,0,113,82a6,6,0,0,0,4.63,1.58A6.24,6.24,0,0,0,122,81.24a7,7,0,0,0,1.49-4.91,6.81,6.81,0,0,0-2.23-4.58A6.09,6.09,0,0,0,117.39,70.15Z"/><ellipse class="cls-1" cx="116.01" cy="75.11" rx="6.92" ry="6.53" transform="translate(40.12 190.62) rotate(-89.62)"/><path d="M115.75,82.21a6.46,6.46,0,0,1-4.08-1.68,7.23,7.23,0,0,1-2.34-4.83h0A7,7,0,0,1,115.46,68a6.84,6.84,0,0,1,7.23,6.5,7.29,7.29,0,0,1-1.57,5.17,6.53,6.53,0,0,1-4.56,2.49A5.48,5.48,0,0,1,115.75,82.21Zm-6.07-6.54a6.8,6.8,0,0,0,2.22,4.58,6.08,6.08,0,0,0,4.63,1.57,6.19,6.19,0,0,0,4.33-2.35,7,7,0,0,0,1.48-4.91,6.48,6.48,0,0,0-6.85-6.16,6.64,6.64,0,0,0-5.81,7.27Z"/><ellipse class="cls-1" cx="115.88" cy="74.9" rx="6.92" ry="6.53" transform="translate(40.2 190.28) rotate(-89.62)"/><path d="M122.56,74.32A7,7,0,0,0,117.39,68h-3a7.27,7.27,0,0,0-2.88,12.34A6.41,6.41,0,0,0,115.62,82a5.51,5.51,0,0,0,.81,0A7,7,0,0,0,122.56,74.32Zm-6.16,7.3A6.12,6.12,0,0,1,111.77,80a6.81,6.81,0,0,1-2.23-4.58,6.66,6.66,0,0,1,5.82-7.27,6.31,6.31,0,0,1,6.85,6.16A6.64,6.64,0,0,1,116.4,81.62Z"/><path class="cls-1" d="M122.12,73.91A6.81,6.81,0,0,0,117.85,68l-1,0h-.08c-1.14,0-2.28,0-3.41,0a6.93,6.93,0,0,0-4.23,7,6.63,6.63,0,0,0,7,6.32A6.8,6.8,0,0,0,122.12,73.91Z"/><path d="M122.3,73.89a7.07,7.07,0,0,0-4-5.89h-1A6.66,6.66,0,0,1,122,73.92a6.94,6.94,0,0,1-1.49,4.91,6.24,6.24,0,0,1-4.33,2.36,6.09,6.09,0,0,1-4.63-1.57,7,7,0,0,1-.73-9.5A6.35,6.35,0,0,1,113.92,68l-.8,0h-.23a7,7,0,0,0-2.39,1.88,7.38,7.38,0,0,0-1.57,5.18,7.22,7.22,0,0,0,2.35,4.84,6.43,6.43,0,0,0,4.07,1.68,7.3,7.3,0,0,0,.81,0,6.56,6.56,0,0,0,4.57-2.49A7.42,7.42,0,0,0,122.3,73.89Z"/><path class="cls-1" d="M121.71,73.22a6.94,6.94,0,0,0-3-5.22l-1.91,0h-.14c-1.19,0-2.39,0-3.57,0a1,1,0,0,1-.4-.06l-1,0a7.05,7.05,0,0,0-3,6.37,6.66,6.66,0,0,0,7,6.33A6.83,6.83,0,0,0,121.71,73.22Z"/><path d="M121.88,73.21A7.15,7.15,0,0,0,119,68h-.62a6.75,6.75,0,0,1,3.12,5.24A7,7,0,0,1,120,78.15a6.2,6.2,0,0,1-4.32,2.36,6.48,6.48,0,0,1-6.85-6.16,7,7,0,0,1,1.48-4.91A6.45,6.45,0,0,1,112,68l-.69,0a7,7,0,0,0-1.24,1.19,7.33,7.33,0,0,0-1.57,5.18A6.89,6.89,0,0,0,115,80.89a5.38,5.38,0,0,0,.8,0,6.55,6.55,0,0,0,4.56-2.48A7.33,7.33,0,0,0,121.88,73.21Z"/><path class="cls-1" d="M121.17,72.31A7.08,7.08,0,0,0,119.26,68c-.81,0-1.62,0-2.43,0h-.14c-1.19,0-2.39,0-3.57,0a1,1,0,0,1-.43-.07l-1.43.07a.87.87,0,0,1-.44-.07L110,68a7.15,7.15,0,0,0-1.89,5.46,6.65,6.65,0,0,0,7,6.32A6.82,6.82,0,0,0,121.17,72.31Z"/><path d="M121.34,72.29A7.24,7.24,0,0,0,119.5,68H119a6.88,6.88,0,0,1,2,4.33,7,7,0,0,1-1.49,4.91,6.22,6.22,0,0,1-4.32,2.36,6.49,6.49,0,0,1-6.86-6.16,7,7,0,0,1,2-5.46l-.52,0A7.31,7.31,0,0,0,108,73.46,6.89,6.89,0,0,0,114.4,80a7.12,7.12,0,0,0,.8,0,6.56,6.56,0,0,0,4.57-2.49A7.38,7.38,0,0,0,121.34,72.29Z"/><path class="cls-1" d="M119.47,68c-.88,0-1.76,0-2.64,0h-.14c-1.19,0-2.39,0-3.57,0a1,1,0,0,1-.43-.07l-1.43.07a1.07,1.07,0,0,1-.45-.07l-2.33.17a7.13,7.13,0,0,0-1,4.21,6.64,6.64,0,0,0,7,6.33,6.82,6.82,0,0,0,6-7.46A7,7,0,0,0,119.47,68Z"/><path d="M119.68,68h-.41a7,7,0,0,1,1.08,3.21,6.66,6.66,0,0,1-5.82,7.27,6.48,6.48,0,0,1-6.85-6.16,7,7,0,0,1,1-4.22l-.43,0a7.46,7.46,0,0,0-.93,4.22,6.89,6.89,0,0,0,6.43,6.51,5.38,5.38,0,0,0,.8,0,7,7,0,0,0,6.13-7.66A7.13,7.13,0,0,0,119.68,68Z"/><path class="cls-1" d="M119.39,68c-.86,0-1.71,0-2.56,0h-.14c-1.19,0-2.39,0-3.57,0a1,1,0,0,1-.43-.07l-1.43.07a1.07,1.07,0,0,1-.45-.07c-1.18.07-2.44.2-3.68.24a7.46,7.46,0,0,0-.35,2.85,6.65,6.65,0,0,0,7,6.32,6.81,6.81,0,0,0,6-7.46A7.39,7.39,0,0,0,119.39,68Z"/><path d="M119.57,68h-.37a7.24,7.24,0,0,1,.42,1.91,6.64,6.64,0,0,1-5.81,7.27,6.08,6.08,0,0,1-4.63-1.57A6.84,6.84,0,0,1,107,71a7,7,0,0,1,.36-2.84h-.38a7.55,7.55,0,0,0-.33,2.86A7.26,7.26,0,0,0,109,75.88,6.48,6.48,0,0,0,113,77.56a7.3,7.3,0,0,0,.81,0A7,7,0,0,0,120,69.87,7.41,7.41,0,0,0,119.57,68Z"/><path class="cls-1" d="M119,68c-.71,0-1.43,0-2.14,0h-.15c-1.19,0-2.38,0-3.56,0a1,1,0,0,1-.43-.07l-1.43.07a1,1,0,0,1-.45-.07c-1.54.09-3.21.27-4.78.24a7.25,7.25,0,0,0,0,1.4,6.63,6.63,0,0,0,7,6.32,6.8,6.8,0,0,0,6-7.46C119,68.29,119,68.14,119,68Z"/><path d="M119.14,68h-.35a3.47,3.47,0,0,1,.06.45,6.94,6.94,0,0,1-1.49,4.91A6.19,6.19,0,0,1,113,75.72a6.49,6.49,0,0,1-6.85-6.16,8,8,0,0,1,0-1.38h-.35a8.3,8.3,0,0,0,0,1.41,6.9,6.9,0,0,0,6.43,6.52,7.12,7.12,0,0,0,.8,0,6.56,6.56,0,0,0,4.57-2.49,7.38,7.38,0,0,0,1.57-5.18A3.41,3.41,0,0,0,119.14,68Z"/><path class="cls-1" d="M116.83,68h-.14c-1.19,0-2.39,0-3.57,0a1,1,0,0,1-.43-.07l-1.43.07a1,1,0,0,1-.45-.07,42,42,0,0,1-5.59.2,6.64,6.64,0,0,0,7,6.19,6.73,6.73,0,0,0,6-6.33Z"/><path d="M118,68a6.79,6.79,0,0,1-1.47,3.79,6.24,6.24,0,0,1-4.33,2.36,6,6,0,0,1-4.63-1.58,6.79,6.79,0,0,1-2.2-4.41l-.36,0a7.2,7.2,0,0,0,2.33,4.73,6.48,6.48,0,0,0,4.08,1.68,7.3,7.3,0,0,0,.81,0A6.56,6.56,0,0,0,116.82,72a7.28,7.28,0,0,0,1.56-4Z"/><path class="cls-1" d="M116.83,68h-.11c-1.2,0-2.41,0-3.6,0a1,1,0,0,1-.43-.07l-1.43.07a1.07,1.07,0,0,1-.45-.07,36.18,36.18,0,0,1-6,.16,6.52,6.52,0,0,0,6.68,4.56A6.6,6.6,0,0,0,117.08,68Z"/><path d="M116.9,68a6.72,6.72,0,0,1-1.15,2.14,6.24,6.24,0,0,1-4.33,2.36A6.37,6.37,0,0,1,105,68.12l-.38,0a6.78,6.78,0,0,0,6.08,4.79,7.12,7.12,0,0,0,.8,0A6.56,6.56,0,0,0,116,70.36,7.17,7.17,0,0,0,117.26,68Z"/><path class="cls-1" d="M113.12,68a1,1,0,0,1-.43-.07l-1.43.07a1,1,0,0,1-.45-.07,37.34,37.34,0,0,1-6,.17A6.29,6.29,0,0,0,115.46,68C114.68,68,113.9,68,113.12,68Z"/><path d="M115.25,68a3.69,3.69,0,0,1-.29.4,6.13,6.13,0,0,1-9.88-.25l-.46,0a6.61,6.61,0,0,0,5.24,3,7.12,7.12,0,0,0,.8,0,6.56,6.56,0,0,0,4.57-2.49,7.23,7.23,0,0,0,.44-.64Z"/><path class="cls-1" d="M112.69,67.94l-1.43.07a1,1,0,0,1-.45-.07c-1.55.09-3.22.27-4.79.24a6.12,6.12,0,0,0,7-.18A1.15,1.15,0,0,1,112.69,67.94Z"/><path d="M113.12,68a1,1,0,0,1-.39-.06,6,6,0,0,1-2.84,1,6,6,0,0,1-3.51-.77h-.7a6.43,6.43,0,0,0,3.44,1.17,7.18,7.18,0,0,0,.8,0A6.45,6.45,0,0,0,113.27,68Z"/><ellipse class="cls-1" cx="89.12" cy="83.06" rx="4.75" ry="5.29" transform="translate(-17.91 24.86) rotate(-14.45)"/><path d="M90.47,88.32a5.46,5.46,0,1,1,3.37-6.47A5.17,5.17,0,0,1,90.47,88.32ZM87.83,78.08a5.18,5.18,0,1,0,5.76,3.83A4.91,4.91,0,0,0,87.83,78.08Z"/><ellipse class="cls-1" cx="88.29" cy="84.4" rx="4.75" ry="5.29" transform="translate(-18.26 24.7) rotate(-14.45)"/><path d="M89.65,89.65A5.46,5.46,0,1,1,93,83.18,5.17,5.17,0,0,1,89.65,89.65ZM87,79.41a5.18,5.18,0,1,0,5.76,3.83A4.92,4.92,0,0,0,87,79.41Z"/><ellipse class="cls-1" cx="87.46" cy="85.73" rx="4.75" ry="5.29" transform="translate(-18.62 24.53) rotate(-14.45)"/><path d="M88.82,91a5.46,5.46,0,1,1,3.36-6.48A5.19,5.19,0,0,1,88.82,91ZM86.18,80.74a5.18,5.18,0,1,0,5.76,3.84A4.91,4.91,0,0,0,86.18,80.74Z"/><ellipse class="cls-1" cx="86.64" cy="87.06" rx="4.75" ry="5.29" transform="translate(-18.98 24.37) rotate(-14.45)"/><path d="M88,92.32a5.46,5.46,0,1,1,3.37-6.47A5.17,5.17,0,0,1,88,92.32ZM85.35,82.08a5.18,5.18,0,1,0,5.76,3.83A4.91,4.91,0,0,0,85.35,82.08Z"/><ellipse class="cls-1" cx="85.81" cy="88.39" rx="4.75" ry="5.29" transform="translate(-19.34 24.2) rotate(-14.45)"/><path d="M87.17,93.65a5.46,5.46,0,0,1-2.71-10.51c2.6-.68,5.32,1.14,6.07,4A5.17,5.17,0,0,1,87.17,93.65ZM84.53,83.41a5.18,5.18,0,1,0,5.76,3.83A4.91,4.91,0,0,0,84.53,83.41Z"/><ellipse class="cls-1" cx="84.98" cy="89.73" rx="4.75" ry="5.29" transform="translate(-19.7 24.04) rotate(-14.45)"/><path d="M86.34,95a5.46,5.46,0,1,1,3.37-6.48A5.19,5.19,0,0,1,86.34,95ZM83.7,84.74a5.18,5.18,0,1,0,5.76,3.83A4.91,4.91,0,0,0,83.7,84.74Z"/><ellipse class="cls-1" cx="84.16" cy="91.06" rx="4.75" ry="5.29" transform="translate(-20.06 23.88) rotate(-14.45)"/><path d="M85.51,96.32a5.46,5.46,0,1,1,3.37-6.48A5.17,5.17,0,0,1,85.51,96.32ZM82.87,86.07a5.18,5.18,0,1,0,5.76,3.84A4.92,4.92,0,0,0,82.87,86.07Z"/><ellipse class="cls-1" cx="83.33" cy="92.39" rx="4.75" ry="5.29" transform="translate(-20.42 23.71) rotate(-14.45)"/><path d="M84.69,97.65a5.46,5.46,0,1,1,3.36-6.47A5.18,5.18,0,0,1,84.69,97.65ZM82.05,87.41a5.18,5.18,0,1,0,5.76,3.83A4.91,4.91,0,0,0,82.05,87.41Z"/><ellipse class="cls-1" cx="82.51" cy="93.73" rx="4.75" ry="5.29" transform="translate(-20.77 23.55) rotate(-14.45)"/><path d="M83.86,99a5.46,5.46,0,1,1,3.37-6.47A5.17,5.17,0,0,1,83.86,99ZM81.22,88.74A5.18,5.18,0,1,0,87,92.57,4.91,4.91,0,0,0,81.22,88.74Z"/><ellipse class="cls-1" cx="81.68" cy="95.06" rx="4.75" ry="5.29" transform="translate(-21.13 23.38) rotate(-14.45)"/><path d="M83,100.32a5.46,5.46,0,1,1,3.37-6.48A5.18,5.18,0,0,1,83,100.32ZM80.39,90.07a5.18,5.18,0,1,0,5.76,3.83A4.93,4.93,0,0,0,80.39,90.07Z"/><ellipse class="cls-1" cx="80.85" cy="96.39" rx="4.75" ry="5.29" transform="translate(-21.49 23.22) rotate(-14.45)"/><path d="M82.21,101.65a5.46,5.46,0,1,1,3.36-6.48A5.18,5.18,0,0,1,82.21,101.65ZM79.57,91.41a5.18,5.18,0,1,0,5.76,3.83A4.9,4.9,0,0,0,79.57,91.41Z"/><ellipse class="cls-1" cx="80.03" cy="97.72" rx="4.75" ry="5.29" transform="translate(-21.85 23.06) rotate(-14.45)"/><path d="M81.38,103a5.46,5.46,0,1,1,3.37-6.47A5.17,5.17,0,0,1,81.38,103ZM78.74,92.74a5.18,5.18,0,1,0,5.76,3.83A4.91,4.91,0,0,0,78.74,92.74Z"/><ellipse class="cls-1" cx="79.2" cy="99.06" rx="4.75" ry="5.29" transform="translate(-22.21 22.89) rotate(-14.45)"/><path d="M80.55,104.32a5.46,5.46,0,1,1,3.37-6.48A5.18,5.18,0,0,1,80.55,104.32ZM77.91,94.07a5.18,5.18,0,1,0,5.76,3.83A4.93,4.93,0,0,0,77.91,94.07Z"/><ellipse class="cls-1" cx="78.34" cy="100.4" rx="4.75" ry="5.29" transform="translate(-22.57 22.72) rotate(-14.45)"/><path d="M79.7,105.66a5.46,5.46,0,1,1,3.36-6.48A5.19,5.19,0,0,1,79.7,105.66ZM77.06,95.41a5.18,5.18,0,1,0,5.76,3.83A4.91,4.91,0,0,0,77.06,95.41Z"/><ellipse class="cls-1" cx="77.39" cy="101.7" rx="4.75" ry="5.29" transform="translate(-22.92 22.53) rotate(-14.45)"/><path d="M78.75,107a5.46,5.46,0,1,1,3.36-6.47A5.19,5.19,0,0,1,78.75,107ZM76.11,96.71a5.18,5.18,0,1,0,5.76,3.83A4.91,4.91,0,0,0,76.11,96.71Z"/><ellipse class="cls-1" cx="76.34" cy="102.85" rx="4.75" ry="5.29" transform="translate(-23.25 22.3) rotate(-14.45)"/><path d="M77.69,108.11a5.46,5.46,0,1,1,3.37-6.48A5.18,5.18,0,0,1,77.69,108.11ZM75.05,97.86a5.18,5.18,0,1,0,5.76,3.84A4.93,4.93,0,0,0,75.05,97.86Z"/><ellipse class="cls-1" cx="75.16" cy="103.76" rx="4.75" ry="5.29" transform="translate(-23.51 22.03) rotate(-14.45)"/><path d="M76.51,109a5.46,5.46,0,1,1,3.37-6.48A5.18,5.18,0,0,1,76.51,109ZM73.88,98.77a5.18,5.18,0,1,0,5.76,3.83A4.92,4.92,0,0,0,73.88,98.77Z"/><ellipse class="cls-1" cx="73.84" cy="104.32" rx="4.75" ry="5.29" transform="translate(-23.69 21.72) rotate(-14.45)"/><path d="M75.19,109.58a5.46,5.46,0,1,1,3.37-6.48A5.18,5.18,0,0,1,75.19,109.58ZM72.55,99.33a5.18,5.18,0,1,0,5.76,3.84A4.92,4.92,0,0,0,72.55,99.33Z"/><ellipse class="cls-1" cx="72.37" cy="104.43" rx="4.75" ry="5.29" transform="translate(-23.77 21.36) rotate(-14.45)"/><path d="M73.73,109.69a5.46,5.46,0,1,1,3.36-6.48A5.19,5.19,0,0,1,73.73,109.69ZM71.09,99.44a5.18,5.18,0,1,0,5.76,3.84A4.91,4.91,0,0,0,71.09,99.44Z"/><ellipse class="cls-1" cx="70.93" cy="104.03" rx="4.75" ry="5.29" transform="translate(-23.71 20.99) rotate(-14.45)"/><path d="M72.28,109.29a5.46,5.46,0,0,1-2.71-10.52,5.46,5.46,0,0,1,2.71,10.52ZM69.64,99.05a5.18,5.18,0,1,0,5.76,3.83A4.91,4.91,0,0,0,69.64,99.05Z"/><ellipse class="cls-1" cx="69.6" cy="103.21" rx="4.75" ry="5.29" transform="translate(-23.55 20.63) rotate(-14.45)"/><path d="M71,108.47A5.46,5.46,0,0,1,68.24,98,5.46,5.46,0,0,1,71,108.47ZM68.31,98.23a5.18,5.18,0,1,0,5.76,3.83A4.91,4.91,0,0,0,68.31,98.23Z"/><ellipse class="cls-1" cx="68.44" cy="102.07" rx="4.75" ry="5.29" transform="translate(-23.3 20.3) rotate(-14.45)"/><path d="M69.79,107.33a5.46,5.46,0,0,1-2.71-10.52,5.46,5.46,0,0,1,2.71,10.52ZM67.15,97.09a5.18,5.18,0,1,0,5.76,3.83A4.91,4.91,0,0,0,67.15,97.09Z"/><ellipse class="cls-1" cx="67.5" cy="100.7" rx="4.75" ry="5.29" transform="translate(-22.99 20.02) rotate(-14.45)"/><path d="M68.85,106a5.46,5.46,0,0,1-2.71-10.52A5.46,5.46,0,0,1,68.85,106ZM66.21,95.71A5.18,5.18,0,1,0,72,99.55,4.92,4.92,0,0,0,66.21,95.71Z"/><ellipse class="cls-1" cx="66.81" cy="99.2" rx="4.75" ry="5.29" transform="translate(-22.64 19.81) rotate(-14.45)"/><path d="M68.16,104.46a5.46,5.46,0,0,1-2.71-10.52,5.46,5.46,0,0,1,2.71,10.52ZM65.52,94.22a5.18,5.18,0,1,0,5.76,3.83A4.91,4.91,0,0,0,65.52,94.22Z"/><ellipse class="cls-1" cx="66.31" cy="97.63" rx="4.75" ry="5.29" transform="translate(-22.26 19.63) rotate(-14.45)"/><path d="M67.66,102.89A5.46,5.46,0,0,1,65,92.37a5.46,5.46,0,0,1,2.71,10.52ZM65,92.64a5.18,5.18,0,1,0,5.76,3.83A4.91,4.91,0,0,0,65,92.64Z"/><ellipse class="cls-1" cx="65.94" cy="96" rx="4.75" ry="5.29" transform="translate(-21.87 19.49) rotate(-14.45)"/><path d="M67.3,101.26a5.46,5.46,0,0,1-2.71-10.52,5.46,5.46,0,0,1,2.71,10.52ZM64.66,91a5.18,5.18,0,1,0,5.76,3.83A4.9,4.9,0,0,0,64.66,91Z"/><ellipse class="cls-1" cx="65.68" cy="94.35" rx="4.75" ry="5.29" transform="translate(-21.46 19.37) rotate(-14.45)"/><path d="M67,99.61a5.46,5.46,0,0,1-2.71-10.52A5.46,5.46,0,0,1,67,99.61ZM64.39,89.36a5.18,5.18,0,1,0,5.76,3.84A4.91,4.91,0,0,0,64.39,89.36Z"/><ellipse class="cls-1" cx="65.45" cy="92.7" rx="4.75" ry="5.29" transform="translate(-21.06 19.26) rotate(-14.45)"/><path d="M66.81,98A5.46,5.46,0,0,1,64.1,87.44,5.46,5.46,0,0,1,66.81,98ZM64.17,87.71a5.18,5.18,0,1,0,5.76,3.84A4.91,4.91,0,0,0,64.17,87.71Z"/><ellipse class="cls-1" cx="65.24" cy="91.05" rx="4.75" ry="5.29" transform="translate(-20.65 19.16) rotate(-14.45)"/><path d="M66.6,96.31a5.46,5.46,0,0,1-2.71-10.52A5.46,5.46,0,0,1,66.6,96.31ZM64,86.06a5.18,5.18,0,1,0,5.76,3.84A4.91,4.91,0,0,0,64,86.06Z"/><ellipse class="cls-1" cx="65.05" cy="89.39" rx="4.75" ry="5.29" transform="translate(-20.25 19.06) rotate(-14.45)"/><path d="M66.4,94.65a5.46,5.46,0,0,1-2.71-10.51A5.46,5.46,0,0,1,66.4,94.65ZM63.76,84.41a5.18,5.18,0,1,0,5.76,3.83A4.91,4.91,0,0,0,63.76,84.41Z"/><ellipse class="cls-1" cx="64.87" cy="87.74" rx="4.75" ry="5.29" transform="translate(-19.84 18.96) rotate(-14.45)"/><path d="M66.23,93a5.46,5.46,0,0,1-2.71-10.52A5.46,5.46,0,0,1,66.23,93ZM63.59,82.75a5.18,5.18,0,1,0,5.76,3.84A4.91,4.91,0,0,0,63.59,82.75Z"/><ellipse class="cls-1" cx="64.73" cy="86.08" rx="4.75" ry="5.29" transform="translate(-19.43 18.87) rotate(-14.45)"/><path d="M66.08,91.34a5.46,5.46,0,0,1-2.71-10.52,5.46,5.46,0,0,1,2.71,10.52ZM63.44,81.1a5.18,5.18,0,1,0,5.76,3.83A4.9,4.9,0,0,0,63.44,81.1Z"/><ellipse class="cls-1" cx="64.62" cy="84.43" rx="4.75" ry="5.29" transform="translate(-19.02 18.79) rotate(-14.45)"/><path d="M66,89.68a5.46,5.46,0,0,1-2.71-10.51A5.46,5.46,0,0,1,66,89.68ZM63.33,79.44a5.18,5.18,0,1,0,5.76,3.83A4.91,4.91,0,0,0,63.33,79.44Z"/><ellipse class="cls-1" cx="64.55" cy="82.77" rx="4.75" ry="5.29" transform="translate(-18.61 18.72) rotate(-14.45)"/><path d="M65.9,88a5.46,5.46,0,0,1-2.71-10.52A5.46,5.46,0,0,1,65.9,88ZM63.26,77.79A5.18,5.18,0,1,0,69,81.62,4.92,4.92,0,0,0,63.26,77.79Z"/><ellipse class="cls-1" cx="64.53" cy="81.12" rx="4.75" ry="5.29" transform="translate(-18.2 18.67) rotate(-14.45)"/><path d="M65.89,86.38a5.46,5.46,0,0,1-2.71-10.51,5.46,5.46,0,0,1,2.71,10.51ZM63.25,76.14A5.18,5.18,0,1,0,69,80,4.91,4.91,0,0,0,63.25,76.14Z"/><ellipse class="cls-1" cx="64.57" cy="79.48" rx="4.75" ry="5.29" transform="translate(-17.79 18.62) rotate(-14.45)"/><path d="M65.93,84.74a5.46,5.46,0,0,1-2.71-10.52,5.46,5.46,0,0,1,2.71,10.52ZM63.29,74.5a5.18,5.18,0,1,0,5.76,3.83A4.9,4.9,0,0,0,63.29,74.5Z"/><ellipse class="cls-1" cx="64.68" cy="77.85" rx="4.75" ry="5.29" transform="translate(-17.38 18.6) rotate(-14.45)"/><path d="M66,83.11a5.46,5.46,0,0,1-2.71-10.52A5.46,5.46,0,0,1,66,83.11ZM63.39,72.86a5.18,5.18,0,1,0,5.76,3.83A4.92,4.92,0,0,0,63.39,72.86Z"/><ellipse class="cls-1" cx="64.86" cy="76.22" rx="4.75" ry="5.29" transform="translate(-16.97 18.59) rotate(-14.45)"/><path d="M66.21,81.48A5.46,5.46,0,0,1,63.5,71a5.46,5.46,0,0,1,2.71,10.52ZM63.57,71.24a5.18,5.18,0,1,0,5.76,3.83A4.91,4.91,0,0,0,63.57,71.24Z"/><ellipse class="cls-1" cx="65.11" cy="74.61" rx="4.75" ry="5.29" transform="translate(-16.55 18.6) rotate(-14.45)"/><path d="M66.47,79.87a5.46,5.46,0,0,1-2.71-10.52,5.46,5.46,0,0,1,2.71,10.52ZM63.83,69.62a5.18,5.18,0,1,0,5.76,3.83A4.91,4.91,0,0,0,63.83,69.62Z"/><path class="cls-1" d="M70.06,71.82a5.34,5.34,0,0,0-3.77-3.92c-.44,0-2.28,0-2.35,0a5.31,5.31,0,1,0,6.12,3.88Z"/><path d="M70.19,71.79c-.5-1.93-4.27-3.87-4.56-3.88a5.14,5.14,0,0,1,4.31,4A4.65,4.65,0,1,1,64.18,68c.31-.08-.28-.13-.51-.13a5.25,5.25,0,0,0-2.92,6.34,4.9,4.9,0,1,0,9.44-2.44Z"/><path d="M69.44,67.91l-.16,0a.7.7,0,0,1-.14,0,5.64,5.64,0,0,1,1.25,2.33,4.65,4.65,0,1,1-9,2.3,5.28,5.28,0,0,1,.93-4.66h0a.86.86,0,0,1-.32,0,5.67,5.67,0,0,0-.84,4.73,4.9,4.9,0,1,0,9.44-2.44A6,6,0,0,0,69.44,67.91Z"/><path d="M71.17,68.7A4.91,4.91,0,0,0,71,68l-.28,0a6.81,6.81,0,0,1,.26.76,4.65,4.65,0,1,1-9,2.31,5.52,5.52,0,0,1,.1-3.13l-.14,0h-.12a5.84,5.84,0,0,0-.09,3.22,4.9,4.9,0,1,0,9.44-2.43Z"/><path d="M71.7,68a4.82,4.82,0,0,1-3.32,5.39,4.9,4.9,0,0,1-5.76-3.83,5.73,5.73,0,0,1-.18-1.68h-.25a6,6,0,0,0,.18,1.72,5.18,5.18,0,0,0,6.08,4A5.08,5.08,0,0,0,72,68Z"/><path d="M72.41,68.15A4.62,4.62,0,0,1,69.11,72a4.92,4.92,0,0,1-5.76-3.83c0-.11,0-.21-.06-.31H63c0,.13,0,.25.07.37a5.19,5.19,0,0,0,6.08,4,4.86,4.86,0,0,0,3.48-4.11Z"/><path d="M72.92,68.23a4.27,4.27,0,0,1-2,1.25,4.58,4.58,0,0,1-4.58-1.58l-.32,0a4.86,4.86,0,0,0,5,1.83,4.45,4.45,0,0,0,2.3-1.48Z"/><path d="M72.47,68.16a3.49,3.49,0,0,1-.57.2,4.35,4.35,0,0,1-3.11-.4l-.55,0a4.61,4.61,0,0,0,3.73.69,4,4,0,0,0,1-.4Z"/><path d="M86,67.79a4.16,4.16,0,0,1-.79.3,4.32,4.32,0,0,1-2.66-.19l-.58,0a4.59,4.59,0,0,0,3.31.43,4.3,4.3,0,0,0,1.2-.51Z"/><path d="M88.28,68A4.23,4.23,0,0,1,86,69.54,4.56,4.56,0,0,1,81.36,68L81,68a4.88,4.88,0,0,0,5,1.84A4.51,4.51,0,0,0,88.6,68Z"/><path class="cls-1" d="M80.65,68a5,5,0,0,0,5.7,3.28A4.63,4.63,0,0,0,89.59,68C88.34,68,81.58,68,80.65,68Z"/><path d="M89.45,68a4.5,4.5,0,0,1-3.14,3.13A4.83,4.83,0,0,1,80.78,68h-.27a5.11,5.11,0,0,0,5.87,3.42A4.78,4.78,0,0,0,89.72,68Z"/><path class="cls-1" d="M80.18,68a6.28,6.28,0,0,0,.16,1,5,5,0,0,0,5.92,3.94A4.86,4.86,0,0,0,89.72,68C88.43,68,81.27,68,80.18,68Z"/><path d="M89.59,68a4.73,4.73,0,0,1-3.37,4.75,4.91,4.91,0,0,1-5.76-3.83,7.65,7.65,0,0,1-.15-.92h-.25a5.45,5.45,0,0,0,.16,1,5.17,5.17,0,0,0,6.08,4,5,5,0,0,0,3.55-5Z"/><path class="cls-1" d="M89,68c-1.08,0-8,0-9.3,0a5.79,5.79,0,0,0,.11,2.37A4.78,4.78,0,1,0,89,68Z"/><path d="M88.9,68s0,.05,0,.07a4.65,4.65,0,1,1-9,2.3A5.68,5.68,0,0,1,79.87,68h-.26a5.81,5.81,0,0,0,.11,2.41A4.9,4.9,0,1,0,89.16,68Z"/><path class="cls-1" d="M87.68,68c-.64,0-7,0-8.43.08a5.63,5.63,0,0,0-.25,3.6,4.78,4.78,0,1,0,9.2-2.36A5.5,5.5,0,0,0,87.68,68Z"/><path d="M87.83,68h-.3a5.87,5.87,0,0,1,.55,1.36,4.65,4.65,0,1,1-9,2.3A5.4,5.4,0,0,1,79.4,68h-.29a5.75,5.75,0,0,0-.23,3.64,4.9,4.9,0,1,0,9.44-2.44A6.16,6.16,0,0,0,87.83,68Z"/><path class="cls-1" d="M78.74,68a5.49,5.49,0,0,0-.84,4.63,4.78,4.78,0,1,0,9.2-2.37A5.73,5.73,0,0,0,85.9,68C85.84,67.91,80.31,68,78.74,68Z"/><path d="M85.88,67.78h-.37A5.48,5.48,0,0,1,87,70.33a4.65,4.65,0,1,1-9,2.31,5.35,5.35,0,0,1,.89-4.6h-.34a5.66,5.66,0,0,0-.79,4.66,4.9,4.9,0,1,0,9.44-2.43A6,6,0,0,0,85.88,67.78Z"/><path class="cls-1" d="M85.8,71.14A5.56,5.56,0,0,0,83.65,68c-.05,0-3.68.07-5.43.08a5.33,5.33,0,0,0-1.62,5.47,4.78,4.78,0,1,0,9.2-2.37Z"/><path d="M85.92,71.1a5.7,5.7,0,0,0-2.26-3.29,1.46,1.46,0,0,1-.22,0l-.2,0a5.35,5.35,0,0,1,2.44,3.31,4.65,4.65,0,1,1-9,2.3A5.14,5.14,0,0,1,78.46,68H78a5.5,5.5,0,0,0-1.53,5.5,4.9,4.9,0,1,0,9.44-2.44Z"/><path class="cls-1" d="M84.37,71.77A5.42,5.42,0,0,0,81.06,68c-1.07,0-2.14.07-3.22.08a5.13,5.13,0,0,0-2.66,6.09,4.77,4.77,0,1,0,9.19-2.37Z"/><path d="M84.5,71.74A5.67,5.67,0,0,0,81.4,68l-.75,0a5.23,5.23,0,0,1,3.6,3.81,4.65,4.65,0,1,1-6-3.76h-.77a5.32,5.32,0,0,0-2.43,6.12,4.9,4.9,0,1,0,9.44-2.43Z"/><ellipse class="cls-1" cx="78.3" cy="73.38" rx="4.75" ry="5.29" transform="translate(-15.83 21.86) rotate(-14.45)"/><path d="M78.69,68H77.31l-.37.07a5.46,5.46,0,1,0,6.08,4A5.44,5.44,0,0,0,78.69,68Zm.89,10.33a5.18,5.18,0,1,1,3.19-6.14A4.91,4.91,0,0,1,79.58,78.37Z"/><ellipse class="cls-1" cx="76.82" cy="73.63" rx="4.75" ry="5.29" transform="matrix(0.97, -0.25, 0.25, 0.97, -15.94, 21.49)"/><path d="M78.17,78.89a5.46,5.46,0,1,1,3.37-6.47A5.17,5.17,0,0,1,78.17,78.89ZM75.53,68.65a5.18,5.18,0,1,0,5.76,3.83A4.91,4.91,0,0,0,75.53,68.65Z"/><ellipse class="cls-1" cx="75.32" cy="73.75" rx="4.75" ry="5.29" transform="translate(-16.02 21.12) rotate(-14.45)"/><path d="M76.67,79A5.46,5.46,0,1,1,80,72.53,5.17,5.17,0,0,1,76.67,79ZM74,68.77a5.18,5.18,0,1,0,5.76,3.83A4.9,4.9,0,0,0,74,68.77Z"/><ellipse class="cls-1" cx="73.81" cy="73.73" rx="4.75" ry="5.29" transform="translate(-16.06 20.75) rotate(-14.45)"/><path d="M75.16,79a5.46,5.46,0,1,1,3.37-6.48A5.18,5.18,0,0,1,75.16,79ZM72.52,68.74a5.18,5.18,0,1,0,5.76,3.84A4.91,4.91,0,0,0,72.52,68.74Z"/><ellipse class="cls-1" cx="72.3" cy="73.55" rx="4.75" ry="5.29" transform="translate(-16.06 20.37) rotate(-14.45)"/><path d="M73.66,78.81A5.46,5.46,0,1,1,77,72.34,5.19,5.19,0,0,1,73.66,78.81ZM71,68.57a5.18,5.18,0,1,0,5.76,3.83A4.9,4.9,0,0,0,71,68.57Z"/><path class="cls-1" d="M71.43,68c-.42,0-.83,0-1.25-.06a3.93,3.93,0,0,0-.67.12A5.32,5.32,0,1,0,75.42,72,5.33,5.33,0,0,0,71.43,68Z"/><path d="M72,68a18.36,18.36,0,0,1-2.34-.13l-.18,0a5.46,5.46,0,1,0,6.08,4A5.59,5.59,0,0,0,72,68Zm.12,10.15a5.18,5.18,0,1,1,3.19-6.14A4.91,4.91,0,0,1,72.11,78.19Z"/><path class="cls-1" d="M74,71.5A5.51,5.51,0,0,0,71.37,68L69.06,68c-.35,0-1.9,0-1.93,0a5.17,5.17,0,0,0-2.34,5.94A4.77,4.77,0,1,0,74,71.5Z"/><path d="M74.11,71.47A5.71,5.71,0,0,0,71.64,68h-.58a5.34,5.34,0,0,1,2.8,3.5,4.65,4.65,0,1,1-9,2.31,5,5,0,0,1,2.63-6l-.6,0a5.35,5.35,0,0,0-2.27,6,4.9,4.9,0,1,0,9.44-2.43Z"/><path class="cls-1" d="M72.6,70.78A5.62,5.62,0,0,0,70.94,68c-.47,0-6.18-.1-6.2-.07a5.38,5.38,0,0,0-1.34,5.2,4.78,4.78,0,1,0,9.2-2.37Z"/><path d="M72.72,70.74A5.88,5.88,0,0,0,71.15,68l-.39,0a5.52,5.52,0,0,1,1.72,2.8,4.65,4.65,0,1,1-9,2.3A5.19,5.19,0,0,1,65,67.94a1.33,1.33,0,0,0-.4,0,5.55,5.55,0,0,0-1.27,5.24,4.9,4.9,0,1,0,9.44-2.44Z"/><path class="cls-1" d="M70.45,68c-.31,0-1.28,0-1.39,0-.35,0-6.09-.08-6.34-.07a5.48,5.48,0,0,0-.61,4.31,4.77,4.77,0,1,0,9.19-2.37A5.91,5.91,0,0,0,70.45,68Z"/><path d="M71.43,69.81A6.09,6.09,0,0,0,70.61,68l-.33,0a5.47,5.47,0,0,1,.9,1.9,4.65,4.65,0,1,1-9,2.3,5.37,5.37,0,0,1,.66-4.28h-.32A5.72,5.72,0,0,0,62,72.25a4.91,4.91,0,1,0,9.45-2.44Z"/><path class="cls-1" d="M69.86,67.94c-.11,0-8.82-.09-8.85,0a5.6,5.6,0,0,0-.07,3.15,4.77,4.77,0,1,0,9.19-2.37A5.13,5.13,0,0,0,69.86,67.94Z"/><path d="M70,68l-.28,0a7.39,7.39,0,0,1,.29.83,4.65,4.65,0,1,1-9,2.31,5.58,5.58,0,0,1,.09-3.12h-.28a5.86,5.86,0,0,0-.06,3.17,4.9,4.9,0,1,0,9.44-2.43A4.6,4.6,0,0,0,70,68Z"/><path class="cls-1" d="M69.22,68l-7.7,0s-1.2.08-1.77.07a6.38,6.38,0,0,0,.17,1.83,5,5,0,0,0,5.92,3.93A5,5,0,0,0,69.22,68Z"/><path d="M69.09,68a4.85,4.85,0,0,1-3.28,5.64,4.92,4.92,0,0,1-5.76-3.84A5.5,5.5,0,0,1,59.88,68h-.25a6,6,0,0,0,.17,1.86,5.18,5.18,0,0,0,6.08,4,5.11,5.11,0,0,0,3.46-5.95A.93.93,0,0,1,69.09,68Z"/><path class="cls-1" d="M61.52,67.91S59.83,68,59,68a3.15,3.15,0,0,0,.09.42A5,5,0,0,0,65,72.32a4.79,4.79,0,0,0,3.44-4.38Z"/><path d="M68.33,67.94A4.66,4.66,0,0,1,65,72.18a4.91,4.91,0,0,1-5.76-3.83c0-.13-.06-.26-.08-.39h-.26a3.4,3.4,0,0,0,.09.46,5.19,5.19,0,0,0,6.08,4A4.93,4.93,0,0,0,68.58,68Z"/><path class="cls-1" d="M61.52,67.91s-1.75.08-2.59,0a4.9,4.9,0,0,0,5.51,2.83,4.57,4.57,0,0,0,3.08-2.85S61.66,67.91,61.52,67.91Z"/><path d="M67.4,67.89a4.45,4.45,0,0,1-3,2.76A4.75,4.75,0,0,1,59.08,68h-.3a5,5,0,0,0,5.69,3,4.73,4.73,0,0,0,3.21-3Z"/><path d="M66,67.91A4.08,4.08,0,0,1,64.07,69,4.49,4.49,0,0,1,60,68h-.39a4.76,4.76,0,0,0,4.52,1.32,4.44,4.44,0,0,0,2.26-1.41Z"/><rect y="62.96" width="179.83" height="1.34"/><polygon points="85.39 59.43 85.39 53.85 75.83 53.85 75.83 14.76 85.72 14.76 85.72 1.01 61.9 1.01 61.9 59.43 85.39 59.43"/><polygon points="138.4 59.43 152.49 59.43 152.49 14.93 160.37 14.93 160.37 1.01 130.51 1.01 130.51 14.93 138.4 14.93 138.4 59.43"/><path d="M33.89,59.43V16.61c0-3.19.5-4.36,2.51-4.36s2.69,1.17,2.69,4.36V59.43H53.35V15.6c0-10.9-6-15.6-16.78-15.6C26.17,0,19.46,4.7,19.46,15.6V59.43Z"/><path d="M97.74,59.43h22.75a38.42,38.42,0,0,0-5.24-4.07c-8.39-5.87-8.73-6.38-8.73-10.07V16.77c0-3.35.68-4.19,2.35-4.19s2.18.84,2.18,4.19V48.14h13.42V13.42C124.47,5.2,119.11,0,109,0,98.47,0,92.77,5.37,92.77,14.93V47.47C92.77,52.83,94.13,56.08,97.74,59.43Z"/></g></g></svg>